<svg width="309" height="344" viewBox="0 0 309 344" fill="none" xmlns="http://www.w3.org/2000/svg">
<path d="M89.4777 109.724C90.0006 114.064 90.2296 118.435 90.1632 122.806C92.567 122.848 95.0706 122.92 97.6738 123.022C99.0763 111.285 101.729 99.7354 105.585 88.5716C110.299 78.6393 126.495 48.0325 126.495 48.0325C126.495 48.0325 122.226 70.3324 118.816 82.3123C116.162 92.0988 106.157 115.275 102.694 123.219L111.204 123.454C114.838 110.553 119.391 97.9333 124.827 85.6918C130.898 75.9877 137.902 66.9064 145.739 58.5785C145.739 58.5785 131.791 76.3415 130.356 86.1449C128.922 95.9482 128.914 103.162 123.944 112.107C120.847 117.626 118.317 121.499 116.834 123.659L127.964 123.992C129.15 112.76 131.6 101.702 135.267 91.0301C139.916 81.0592 153.982 50.117 153.982 50.117C151.131 60.3416 148.959 70.7463 147.478 81.2626C146.293 92.6657 135.882 116.835 132.712 124.203C134.489 124.242 136.331 124.319 138.277 124.37C140.724 112.746 144.332 101.401 149.047 90.5095C154.641 80.3492 175.816 47.0094 175.816 47.0094C171.77 57.5787 168.376 68.3895 165.654 79.3805C163.175 91.119 147.869 117.278 143.532 124.616L152.639 125.03C155.399 117.004 158.595 109.138 162.213 101.466C167.492 92.0385 172.014 82.2025 175.736 72.0511C178.781 62.4961 182.477 46.5034 182.477 46.5034C182.477 46.5034 178.25 86.4345 172.268 99.3584C167.563 108.502 161.938 117.136 155.48 125.125C159.45 125.317 163.524 125.481 167.611 125.698C170.745 113.833 175.626 102.507 182.092 92.0961C193.365 78.3829 205.413 65.3313 218.177 53.0053C210.908 62.142 204.165 71.6883 197.979 81.5977C191.551 92.5847 174.697 119.589 170.816 125.921L180.106 126.398C182.635 119.751 191.225 97.7178 198.962 87.9451C208.16 76.3512 227.763 53.3496 227.763 53.3496C227.763 53.3496 214.061 79.0934 205.973 94.1167C199.412 105.404 192.16 116.27 184.258 126.653C187.347 126.851 190.318 127.024 193.148 127.289C200.477 116.504 208.484 106.2 217.122 96.4416C227.136 86.0787 250.373 67.2948 250.373 67.2948C250.373 67.2948 234.113 88.7086 222.71 101.595C213.038 112.424 200.468 124.005 196.769 127.626C201.117 127.997 205.206 128.435 209.088 128.927C214.311 120.129 220.668 112.064 227.995 104.941C240.061 93.5468 255.919 81.4469 255.919 81.4469C249.269 91.0805 241.93 100.214 233.959 108.776C226.139 116.74 216.951 125.391 212.582 129.408C215.672 129.828 218.607 130.287 221.387 130.787C227.503 123.235 234.259 116.23 241.582 109.852C251.669 101.689 267.684 91.0465 267.684 91.0465C261.12 97.0066 255.022 103.465 249.445 110.366C242.222 118.387 233.986 125.427 224.946 131.307C228.245 131.895 231.286 132.549 234.158 133.191C239.186 127.004 244.971 121.479 251.375 116.745C257.695 113.22 277.103 102.031 277.103 102.031L255.321 121.103C249.424 125.86 243.136 130.106 236.525 133.798C239.059 134.417 241.426 135.025 243.636 135.672C247.111 131.609 258.026 119.182 262.174 117.718C267.227 115.909 284.992 105.201 284.992 105.201C284.992 105.201 271.575 115.004 263.266 121.929C257.35 127.013 250.005 133.189 246.326 136.251C248.303 136.848 250.112 137.433 251.803 137.993C254.456 136.085 264.28 128.823 268.809 125.208C274.604 121.146 280.625 117.418 286.842 114.042C286.842 114.042 278.778 120.848 272.896 125.424C268.328 129.105 257.882 136.307 254.288 138.847C255.629 139.332 256.904 139.778 258.076 140.251C263.246 135.662 268.778 131.501 274.618 127.807C280.63 124.585 293.901 119.757 293.901 119.757C293.901 119.757 284.577 126.391 275.847 131.483C269.194 135.427 262.568 139.475 260.017 141.135L263.012 142.467C266.99 139.614 271.399 137.422 276.073 135.974C283.73 133.989 294.164 130.785 294.164 130.785C289.696 135.033 284.392 138.298 278.592 140.37C273.961 141.962 269.13 142.897 264.238 143.147C266.246 144.107 268.177 145.22 270.015 146.477C273.39 144.76 277.097 143.799 280.881 143.66C285.74 143.442 290.608 143.514 295.459 143.875C292.689 146.597 289.029 148.216 285.155 148.433C280.299 147.805 277.692 147.76 277.692 147.76C281.366 148.753 284.865 150.317 288.06 152.396C291.72 155.299 294.733 158.941 296.905 163.085C291.092 160.793 285.499 157.972 280.197 154.656C277.229 152.152 273.366 149.603 271.47 148.041C273.086 149.965 274.542 152.018 275.822 154.181C277.645 157.318 279.006 160.703 279.863 164.229C276.923 162.048 274.525 159.213 272.857 155.948C270.63 150.977 270.94 150.897 269.257 147.172C267.345 146.614 263.018 144.407 259.21 143.563C262.93 146.832 266.148 150.634 268.761 154.846C272.929 161.977 279.326 174.299 279.326 174.299C274.06 168.602 269.392 162.375 265.398 155.718C263.445 151.598 261.214 147.616 258.72 143.801C256.952 143.372 255.002 142.879 252.845 142.439C256.161 145.855 259.114 149.607 261.656 153.637C265.073 159.575 264.573 160.204 268.601 167.648C271.834 173.244 275.489 178.584 279.534 183.622C279.534 183.622 267.841 177.498 265.533 172.216C263.225 166.933 258.591 162.476 255.616 155.258C253.71 150.599 251.486 146.078 248.961 141.726C247.011 141.233 244.905 140.78 242.735 140.289C246.603 145.985 250.006 151.987 252.909 158.234C256.927 167.345 263.716 187.999 263.716 187.999C263.716 187.999 252.445 169.228 249.708 162.504C247.241 156.819 241.051 143.166 239.208 139.039C236.466 138.474 233.401 137.937 230.646 137.32C236.1 143.918 241.082 150.895 245.555 158.199C250.768 167.444 260.212 187.687 260.212 187.687C252.342 179.097 245.304 169.775 239.191 159.848C235.249 151.883 229.357 140.871 227.112 136.682C223.864 136.082 220.513 135.508 217.11 134.948C224.224 142.429 230.81 150.398 236.821 158.798C241.37 166.551 251.639 188.911 251.639 188.911C244.077 180.025 236.974 170.756 230.359 161.139C226.612 154.565 216.278 138.769 213.553 134.649C210.449 134.178 207.19 133.746 203.945 133.367C209.488 142.361 215.566 151.013 222.145 159.274C228.344 165.933 226.295 167.186 231.726 174.932C237.158 182.678 245.913 193.446 245.913 193.446C245.913 193.446 232.64 184.848 228.962 178.755C225.285 172.663 217.949 169.072 213.52 161.787C208.076 152.55 203.567 142.79 200.06 132.654C196.828 132.327 193.596 132 190.377 131.725C193.846 136.373 206.582 153.766 210.369 160.496C214.712 168.302 226.525 194.7 226.525 194.7C226.525 194.7 217.766 180.936 213.142 174.812C208.517 168.687 201.651 166.695 197.403 156.7C194.01 149.147 189.012 136.683 186.924 131.399C185.172 131.243 183.433 131.139 181.656 131.1C179.879 131.062 178.075 130.919 176.078 130.882C180.594 137.313 184.618 144.078 188.115 151.118C193.687 162.601 192.393 169.538 198.072 178.663C202.953 185.858 208.406 192.645 214.376 198.958C214.376 198.958 198.976 190.246 195.378 181.691C191.78 173.137 189.534 163.622 185.467 158.795C181.317 154.866 178.249 149.928 176.561 144.46C175.361 139.833 174.279 133.956 173.783 130.977C169.424 130.776 164.754 130.655 159.903 130.47C167.49 139.538 174.41 149.148 180.608 159.223C186.314 171.999 191.143 185.15 195.063 198.583C195.063 198.583 184.62 179.598 178.752 171.022C172.885 162.445 166.429 156.074 163.627 148.035C161.599 142.125 158.655 134.178 157.23 130.386L147.671 130.146C151.486 135.703 161.802 151.004 166.756 159.041C172.819 169.009 187.514 198.432 187.514 198.432C182.265 189.805 176.434 181.548 170.064 173.717C162.799 167.147 156.781 159.308 152.305 150.581C149.058 143.379 145.451 133.939 143.894 129.849C140.106 129.721 136.332 129.645 132.751 129.464C139.503 137.838 145.518 146.786 150.726 156.206C157.062 168.932 164.538 201.392 164.538 201.392C161.708 192.669 157.7 184.374 152.626 176.74C145.859 167.676 135.634 153.793 132.929 145.063C131.082 139.217 129.308 132.797 128.378 129.21L121.218 129.069C125.547 136.87 129.469 144.89 132.968 153.097C138.425 166.052 153.176 206.556 153.176 206.556C153.176 206.556 136.411 180.222 129.804 169.008C123.198 157.794 121.682 151.307 116.848 129.037C113.903 128.968 110.959 128.899 108.131 128.855C112.367 134.727 115.31 141.435 116.766 148.532C121.182 165.412 124.08 182.652 125.426 200.046C122.992 191.399 120.086 182.892 116.722 174.563C113.368 167.166 105.323 136.13 103.383 128.644C100.879 128.572 98.4409 128.538 96.0543 128.491C100.515 134.071 103.596 140.63 105.047 147.63C108.246 161.891 97.1928 185.284 97.1928 185.284C97.1928 185.284 104.413 162.441 101.625 154.454C98.8365 146.466 95.8695 146.736 94.5785 140.691C93.7742 136.641 93.1931 132.55 92.8378 128.437C90.062 128.38 88.8563 128.415 86.2493 128.369C89.4497 135.677 90.6174 143.715 89.6278 151.627C89.0511 157.765 86.7317 163.604 82.945 168.45C83.5419 162.692 83.3717 156.877 82.4389 151.161C81.7406 143.507 82.1016 135.796 83.5118 128.247C64.2256 127.976 50.608 127.844 50.608 127.844L55.2936 121.636C55.2936 121.636 67.5235 121.739 87.6419 122.239C84.5688 114.237 82.6863 105.826 82.0551 97.2786C82.4562 85.6828 83.9414 74.1529 86.491 62.841C85.6525 71.2132 85.3449 79.6317 85.5701 88.0455C85.1262 95.7058 88.4351 101.228 89.4777 109.724Z" fill="#B87EE4" fill-opacity="0.3"/>
<path d="M72.1845 176.593C70.4877 180.623 68.521 184.533 66.2977 188.296C68.3646 189.524 70.5034 190.828 72.7141 192.206C79.7482 182.706 87.7748 173.988 96.6562 166.202C105.672 159.911 134.906 141.351 134.906 141.351C134.906 141.351 120.149 158.605 111.25 167.321C104.096 174.507 83.9214 189.68 76.9776 194.864L84.2523 199.285C93.8013 189.88 104.009 181.174 114.797 173.235C124.878 167.814 135.462 163.396 146.396 160.046C146.396 160.046 125.479 168.564 119.375 176.368C113.272 184.173 109.69 190.435 100.941 195.742C95.5164 199.001 91.3996 201.112 89.0411 202.253L98.5438 208.057C105.139 198.888 112.746 190.497 121.22 183.045C130.199 176.688 157.749 156.781 157.749 156.781C150.206 164.25 143.163 172.21 136.667 180.611C129.987 189.929 108.968 205.764 102.563 210.593C104.088 211.508 105.65 212.488 107.315 213.495C115.2 204.611 123.955 196.545 133.447 189.421C143.341 183.367 178.254 164.9 178.254 164.9C169.502 172.076 161.198 179.785 153.387 187.983C145.417 196.951 119.16 212.089 111.756 216.313L119.463 221.185C125.837 215.582 132.51 210.333 139.454 205.461C148.711 199.888 157.513 193.585 165.776 186.612C173.156 179.822 184.29 167.761 184.29 167.761C184.29 167.761 160.833 200.351 149.233 208.613C140.615 214.224 131.451 218.936 121.883 222.676C125.237 224.809 128.693 226.971 132.136 229.184C140.738 220.431 150.589 213.012 161.364 207.173C177.951 200.847 194.883 195.48 212.077 191.098C201.236 195.433 190.649 200.383 180.366 205.926C169.338 212.284 141.318 227.389 134.81 230.966L142.642 235.983C148.133 231.463 166.511 216.581 178.074 211.926C191.809 206.413 220.234 196.148 220.234 196.148C220.234 196.148 195.576 211.719 181.106 220.761C169.815 227.314 158.131 233.159 146.123 238.263C148.707 239.965 151.202 241.588 153.529 243.22C165.239 237.483 177.3 232.501 189.639 228.305C203.472 224.266 232.963 219.464 232.963 219.464C232.963 219.464 208.229 230.007 191.939 235.55C178.172 240.164 161.515 243.994 156.507 245.307C160.1 247.784 163.435 250.19 166.564 252.541C175.459 247.487 184.977 243.631 194.871 241.075C210.997 237.156 230.768 234.504 230.768 234.504C220.218 239.577 209.317 243.874 198.151 247.362C187.413 250.404 175.146 253.366 169.359 254.69C171.836 256.586 174.158 258.439 176.325 260.251C185.379 256.721 194.719 253.985 204.239 252.073C217.046 249.981 236.23 248.672 236.23 248.672C227.575 250.597 219.078 253.185 210.815 256.415C200.566 259.804 189.924 261.838 179.158 262.466C181.733 264.611 184.05 266.686 186.227 268.667C193.66 265.785 201.422 263.851 209.33 262.913C216.566 262.983 238.968 262.88 238.968 262.88L210.598 268.654C203.119 269.863 195.553 270.436 187.981 270.367C189.876 272.161 191.631 273.861 193.23 275.519C198.261 273.711 213.9 268.325 218.228 269.109C223.514 270.041 244.25 269.543 244.25 269.543C244.25 269.543 227.739 271.41 217.09 273.308C209.432 274.792 199.993 276.517 195.28 277.354C196.701 278.852 197.982 280.257 199.173 281.581C202.423 281.238 214.555 279.798 220.28 278.902C227.327 278.246 234.403 277.991 241.477 278.139C241.477 278.139 231.099 280.055 223.723 281.116C217.932 282.049 205.289 283.128 200.909 283.555C201.833 284.64 202.72 285.659 203.503 286.651C210.268 285.227 217.136 284.353 224.038 284.039C230.857 284.218 244.776 286.601 244.776 286.601C244.776 286.601 233.39 287.743 223.284 287.841C215.551 287.97 207.79 288.202 204.751 288.38L206.693 291.021C211.562 290.514 216.478 290.795 221.255 291.853C228.89 293.923 239.54 296.31 239.54 296.31C233.554 297.786 227.33 297.994 221.265 296.92C216.454 296.008 211.794 294.427 207.421 292.22C208.689 294.048 209.816 295.972 210.789 297.974C214.571 298.155 218.267 299.157 221.623 300.912C225.951 303.13 230.144 305.605 234.179 308.322C230.424 309.314 226.442 308.906 222.971 307.175C219.063 304.224 216.821 302.893 216.821 302.893C219.521 305.576 221.784 308.668 223.53 312.057C225.27 316.392 226.083 321.049 225.916 325.724C222.003 320.853 218.543 315.631 215.581 310.124C214.243 306.478 212.15 302.35 211.278 300.054C211.728 302.526 211.975 305.031 212.016 307.544C212.044 311.172 211.549 314.786 210.546 318.274C209.074 314.923 208.395 311.272 208.564 307.609C209.093 302.188 209.402 302.272 209.786 298.203C208.402 296.77 205.737 292.709 202.848 290.09C204.459 294.772 205.37 299.669 205.553 304.623C205.64 312.882 205.09 326.755 205.09 326.755C203.339 319.197 202.37 311.475 202.2 303.714C202.545 299.167 202.579 294.603 202.304 290.053C200.981 288.804 199.531 287.41 197.876 285.959C199.064 290.569 199.769 295.292 199.981 300.051C200.006 306.902 199.26 307.201 199.07 315.663C199.106 322.126 199.635 328.576 200.652 334.955C200.652 334.955 193.53 323.843 194.142 318.111C194.755 312.379 192.939 306.21 193.931 298.467C194.584 293.476 194.892 288.447 194.855 283.415C193.405 282.021 191.801 280.584 190.159 279.082C190.697 285.947 190.678 292.846 190.104 299.711C189.08 309.616 184.743 330.92 184.743 330.92C184.743 330.92 184.254 309.031 185.209 301.833C185.883 295.672 187.271 280.747 187.715 276.249C185.614 274.399 183.217 272.414 181.13 270.513C182.598 278.947 183.469 287.476 183.735 296.036C183.682 306.65 181.854 328.912 181.854 328.912C179.275 317.551 177.78 305.967 177.389 294.316C177.912 285.443 178.251 272.96 178.376 268.208C175.853 266.077 173.226 263.918 170.548 261.745C173.02 271.768 174.792 281.955 175.851 292.229C175.961 301.218 173.801 325.727 173.801 325.727C171.636 314.262 170.059 302.691 169.079 291.061C169.081 283.494 167.932 264.653 167.607 259.724C165.144 257.776 162.527 255.787 159.896 253.849C160.254 264.408 161.246 274.934 162.868 285.37C164.953 294.226 162.552 294.299 163.431 303.718C164.311 313.138 166.58 326.83 166.58 326.83C166.58 326.83 159.312 312.784 159.136 305.67C158.961 298.556 154.368 291.802 154.131 283.279C153.979 272.559 154.898 261.847 156.875 251.305C154.229 249.419 151.584 247.533 148.924 245.699C149.634 251.456 152.079 272.874 152.034 280.596C151.938 289.529 149.118 318.311 149.118 318.311C149.118 318.311 148.331 302.017 147.348 294.405C146.366 286.794 141.389 281.661 142.652 270.875C143.447 262.632 145.282 249.33 146.087 243.706C144.642 242.702 143.183 241.75 141.659 240.836C140.135 239.922 138.638 238.904 136.922 237.882C137.658 245.706 137.801 253.576 137.35 261.425C136.5 274.159 131.939 279.544 132.35 290.283C133.025 298.951 134.398 307.549 136.456 315.991C136.456 315.991 127.396 300.792 128.51 291.579C129.623 282.366 132.388 272.988 131.246 266.78C129.588 261.311 129.37 255.501 130.613 249.916C131.864 245.303 133.837 239.661 134.882 236.828C131.195 234.493 127.199 232.074 123.076 229.51C125.173 241.146 126.422 252.922 126.814 264.744C125.439 278.668 123.118 292.485 119.866 306.095C119.866 306.095 120.203 284.43 119.356 274.073C118.509 263.716 116.058 254.984 117.608 246.612C118.774 240.474 120.155 232.112 120.796 228.113L112.612 223.167C113.172 229.885 114.551 248.287 114.873 257.722C115.199 269.385 113.384 302.223 113.384 302.223C113.099 292.129 112.127 282.068 110.473 272.11C107.418 262.803 106.075 253.011 106.512 243.214C107.26 235.348 108.805 225.362 109.479 221.038C106.252 219.05 103.011 217.114 99.9901 215.182C101.706 225.802 102.497 236.554 102.353 247.317C101.551 261.511 91.9601 293.41 91.9601 293.41C93.8245 284.43 94.4531 275.239 93.8283 266.094C92.4417 254.868 90.4392 237.743 92.4156 228.82C93.7083 222.827 95.3478 216.371 96.3175 212.795L90.1686 209.125C90.0632 218.045 89.4959 226.955 88.469 235.818C86.7894 249.774 79.5325 292.266 79.5325 292.266C79.5325 292.266 78.0185 261.084 77.8366 248.07C77.6548 235.056 79.5522 228.67 86.3882 206.931C83.8648 205.412 81.3414 203.893 78.9071 202.454C79.6764 209.653 78.9095 216.938 76.6575 223.823C72.1293 240.674 66.1039 257.086 58.654 272.861C60.8243 264.143 62.5158 255.314 63.7207 246.413C64.4734 238.326 72.8637 207.382 74.8875 199.918C72.7487 198.614 70.6474 197.377 68.5978 196.153C69.7073 203.21 69.134 210.435 66.9248 217.234C62.6378 231.207 41.4453 246.049 41.4453 246.049C41.4453 246.049 59.0359 229.785 60.5717 221.465C62.1075 213.146 59.3966 211.91 61.2708 206.019C62.5789 202.103 64.1011 198.262 65.8305 194.513C63.4478 193.088 62.3832 192.521 60.1412 191.19C59.3001 199.123 56.3314 206.684 51.5514 213.066C48.0092 218.111 43.1013 222.034 37.411 224.367C40.7827 219.661 43.5159 214.526 45.5383 209.098C48.724 202.104 52.8586 195.585 57.8241 189.727C41.2064 179.935 29.4432 173.073 29.4432 173.073L36.5892 170.002C36.5892 170.002 47.161 176.152 64.3886 186.554C65.6843 178.081 68.2165 169.843 71.9037 162.106C77.9978 152.232 85.0009 142.953 92.8206 134.391C87.9439 141.248 83.5053 148.408 79.5318 155.827C75.3506 162.261 75.4884 168.698 72.1845 176.593Z" fill="#B87EE4" fill-opacity="0.3"/>
<path d="M85.1845 164.593C83.4877 168.623 81.521 172.533 79.2977 176.296C81.3646 177.524 83.5034 178.828 85.7141 180.206C92.7482 170.706 100.775 161.988 109.656 154.202C118.672 147.911 147.906 129.351 147.906 129.351C147.906 129.351 133.149 146.605 124.25 155.321C117.096 162.507 96.9214 177.68 89.9776 182.864L97.2523 187.285C106.801 177.88 117.009 169.174 127.797 161.235C137.878 155.814 148.462 151.396 159.396 148.046C159.396 148.046 138.479 156.564 132.375 164.368C126.272 172.173 122.69 178.435 113.941 183.742C108.516 187.001 104.4 189.112 102.041 190.253L111.544 196.057C118.139 186.888 125.746 178.497 134.22 171.045C143.199 164.688 170.749 144.781 170.749 144.781C163.206 152.25 156.163 160.21 149.667 168.611C142.987 177.929 121.968 193.764 115.563 198.593C117.088 199.508 118.65 200.488 120.315 201.495C128.2 192.611 136.955 184.545 146.447 177.421C156.341 171.367 191.254 152.9 191.254 152.9C182.502 160.076 174.198 167.785 166.387 175.983C158.417 184.951 132.16 200.089 124.756 204.313L132.463 209.185C138.837 203.582 145.51 198.333 152.454 193.461C161.711 187.888 170.513 181.585 178.776 174.612C186.156 167.822 197.29 155.761 197.29 155.761C197.29 155.761 173.833 188.351 162.233 196.613C153.615 202.224 144.451 206.936 134.883 210.676C138.237 212.809 141.693 214.971 145.136 217.184C153.738 208.431 163.589 201.012 174.364 195.173C190.951 188.847 207.883 183.48 225.077 179.098C214.236 183.433 203.649 188.383 193.366 193.926C182.338 200.284 154.318 215.389 147.81 218.966L155.642 223.983C161.133 219.463 179.511 204.581 191.074 199.926C204.809 194.413 233.234 184.148 233.234 184.148C233.234 184.148 208.576 199.719 194.106 208.761C182.815 215.314 171.131 221.159 159.123 226.263C161.707 227.965 164.202 229.588 166.529 231.22C178.239 225.483 190.3 220.501 202.639 216.305C216.472 212.266 245.963 207.464 245.963 207.464C245.963 207.464 221.229 218.007 204.939 223.55C191.172 228.164 174.515 231.994 169.507 233.307C173.1 235.784 176.435 238.19 179.564 240.541C188.459 235.487 197.977 231.631 207.871 229.075C223.997 225.156 243.768 222.504 243.768 222.504C233.218 227.577 222.317 231.874 211.151 235.362C200.413 238.404 188.146 241.366 182.359 242.69C184.836 244.586 187.158 246.439 189.325 248.251C198.379 244.721 207.719 241.985 217.239 240.073C230.046 237.981 249.23 236.672 249.23 236.672C240.575 238.597 232.078 241.185 223.815 244.415C213.566 247.804 202.924 249.838 192.158 250.466C194.733 252.611 197.05 254.686 199.227 256.667C206.66 253.785 214.422 251.851 222.33 250.913C229.566 250.983 251.968 250.88 251.968 250.88L223.598 256.654C216.119 257.863 208.553 258.436 200.981 258.367C202.876 260.161 204.631 261.861 206.23 263.519C211.261 261.711 226.9 256.325 231.228 257.109C236.514 258.041 257.25 257.543 257.25 257.543C257.25 257.543 240.739 259.41 230.09 261.308C222.432 262.792 212.993 264.517 208.28 265.354C209.701 266.852 210.982 268.257 212.173 269.581C215.423 269.238 227.555 267.798 233.28 266.902C240.327 266.246 247.403 265.991 254.477 266.139C254.477 266.139 244.099 268.055 236.723 269.116C230.932 270.049 218.289 271.128 213.909 271.555C214.833 272.64 215.72 273.659 216.503 274.651C223.268 273.227 230.136 272.353 237.038 272.039C243.857 272.218 257.776 274.601 257.776 274.601C257.776 274.601 246.39 275.743 236.284 275.841C228.551 275.97 220.79 276.202 217.751 276.38L219.693 279.021C224.562 278.514 229.478 278.795 234.255 279.853C241.89 281.923 252.54 284.31 252.54 284.31C246.554 285.786 240.33 285.994 234.265 284.92C229.454 284.008 224.794 282.427 220.421 280.22C221.689 282.048 222.816 283.972 223.789 285.974C227.571 286.155 231.267 287.157 234.623 288.912C238.951 291.13 243.144 293.605 247.179 296.322C243.424 297.314 239.442 296.906 235.971 295.175C232.063 292.224 229.821 290.893 229.821 290.893C232.521 293.576 234.784 296.668 236.53 300.057C238.27 304.392 239.083 309.049 238.916 313.724C235.003 308.853 231.543 303.631 228.581 298.124C227.243 294.478 225.15 290.35 224.278 288.054C224.728 290.526 224.975 293.031 225.016 295.544C225.044 299.172 224.549 302.786 223.546 306.274C222.074 302.923 221.395 299.272 221.564 295.609C222.093 290.188 222.402 290.272 222.786 286.203C221.402 284.77 218.737 280.709 215.848 278.09C217.459 282.772 218.37 287.669 218.553 292.623C218.64 300.882 218.09 314.755 218.09 314.755C216.339 307.197 215.37 299.475 215.2 291.714C215.545 287.167 215.579 282.603 215.304 278.053C213.981 276.804 212.531 275.41 210.876 273.959C212.064 278.569 212.769 283.292 212.981 288.051C213.006 294.902 212.26 295.201 212.07 303.663C212.106 310.126 212.635 316.576 213.652 322.955C213.652 322.955 206.53 311.843 207.142 306.111C207.755 300.379 205.939 294.21 206.931 286.467C207.584 281.476 207.892 276.447 207.855 271.415C206.405 270.021 204.801 268.584 203.159 267.082C203.697 273.947 203.678 280.846 203.104 287.711C202.08 297.616 197.743 318.92 197.743 318.92C197.743 318.92 197.254 297.031 198.209 289.833C198.883 283.672 200.271 268.747 200.715 264.249C198.614 262.399 196.217 260.414 194.13 258.513C195.598 266.947 196.469 275.476 196.735 284.036C196.682 294.65 194.854 316.912 194.854 316.912C192.275 305.551 190.78 293.967 190.389 282.316C190.912 273.443 191.251 260.96 191.376 256.208C188.853 254.077 186.226 251.918 183.548 249.745C186.02 259.768 187.792 269.955 188.851 280.229C188.961 289.218 186.801 313.727 186.801 313.727C184.636 302.262 183.059 290.691 182.079 279.061C182.081 271.494 180.932 252.653 180.607 247.724C178.144 245.776 175.527 243.787 172.896 241.849C173.254 252.408 174.246 262.934 175.868 273.37C177.953 282.226 175.552 282.299 176.431 291.718C177.311 301.138 179.58 314.83 179.58 314.83C179.58 314.83 172.312 300.784 172.136 293.67C171.961 286.556 167.368 279.802 167.131 271.279C166.979 260.559 167.898 249.847 169.875 239.305C167.229 237.419 164.584 235.533 161.924 233.699C162.634 239.456 165.079 260.874 165.034 268.596C164.938 277.529 162.118 306.311 162.118 306.311C162.118 306.311 161.331 290.017 160.348 282.405C159.366 274.794 154.389 269.661 155.652 258.875C156.447 250.632 158.282 237.33 159.087 231.706C157.642 230.702 156.183 229.75 154.659 228.836C153.135 227.922 151.638 226.904 149.922 225.882C150.658 233.706 150.801 241.576 150.35 249.425C149.5 262.159 144.939 267.544 145.35 278.283C146.025 286.951 147.398 295.549 149.456 303.991C149.456 303.991 140.396 288.792 141.51 279.579C142.623 270.366 145.388 260.988 144.246 254.78C142.588 249.311 142.37 243.501 143.613 237.916C144.864 233.303 146.837 227.661 147.882 224.828C144.195 222.493 140.199 220.074 136.076 217.51C138.173 229.146 139.422 240.922 139.814 252.744C138.439 266.668 136.118 280.485 132.866 294.095C132.866 294.095 133.203 272.43 132.356 262.073C131.509 251.716 129.058 242.984 130.608 234.612C131.774 228.474 133.155 220.112 133.796 216.113L125.612 211.167C126.172 217.885 127.551 236.287 127.873 245.722C128.199 257.385 126.384 290.223 126.384 290.223C126.099 280.129 125.127 270.068 123.473 260.11C120.418 250.803 119.075 241.011 119.512 231.214C120.26 223.348 121.805 213.362 122.479 209.038C119.252 207.05 116.011 205.114 112.99 203.182C114.706 213.802 115.497 224.554 115.353 235.317C114.551 249.511 104.96 281.41 104.96 281.41C106.824 272.43 107.453 263.239 106.828 254.094C105.442 242.868 103.439 225.743 105.416 216.82C106.708 210.827 108.348 204.371 109.318 200.795L103.169 197.125C103.063 206.045 102.496 214.955 101.469 223.818C99.7894 237.774 92.5325 280.266 92.5325 280.266C92.5325 280.266 91.0185 249.084 90.8366 236.07C90.6548 223.056 92.5522 216.67 99.3882 194.931C96.8648 193.412 94.3414 191.893 91.9071 190.454C92.6764 197.653 91.9095 204.938 89.6575 211.823C85.1293 228.674 79.1039 245.086 71.654 260.861C73.8243 252.143 75.5158 243.314 76.7207 234.413C77.4734 226.326 85.8637 195.382 87.8875 187.918C85.7487 186.614 83.6474 185.377 81.5978 184.153C82.7073 191.21 82.134 198.435 79.9248 205.234C75.6378 219.207 54.4453 234.049 54.4453 234.049C54.4453 234.049 72.0359 217.785 73.5717 209.465C75.1075 201.146 72.3966 199.91 74.2708 194.019C75.5789 190.103 77.1011 186.262 78.8305 182.513C76.4478 181.088 75.3832 180.521 73.1412 179.19C72.3001 187.123 69.3314 194.684 64.5514 201.066C61.0092 206.111 56.1013 210.034 50.411 212.367C53.7827 207.661 56.5159 202.526 58.5383 197.098C61.724 190.104 65.8586 183.585 70.8241 177.727C54.2064 167.935 42.4432 161.073 42.4432 161.073L49.5892 158.002C49.5892 158.002 60.161 164.152 77.3886 174.554C78.6843 166.081 81.2165 157.843 84.9037 150.106C90.9978 140.232 98.0009 130.953 105.821 122.391C100.944 129.248 96.5053 136.408 92.5318 143.827C88.3506 150.261 88.4884 156.698 85.1845 164.593Z" fill="#9D53D5"/>
<path d="M89.249 97.8376C89.7718 102.178 90.0008 106.549 89.9345 110.92C92.3383 110.962 94.8418 111.034 97.4451 111.136C98.8476 99.399 101.5 87.8494 105.356 76.6856C110.07 66.7533 126.267 36.1466 126.267 36.1466C126.267 36.1466 121.998 58.4464 118.587 70.4263C115.934 80.2128 105.928 103.389 102.466 111.333L110.975 111.568C114.609 98.6672 119.162 86.0473 124.599 73.8058C130.669 64.1017 137.673 55.0205 145.511 46.6925C145.511 46.6925 131.562 64.4555 130.127 74.2589C128.693 84.0622 128.686 91.2765 123.715 100.221C120.618 105.74 118.088 109.613 116.605 111.773L127.735 112.106C128.921 100.874 131.371 89.8161 135.038 79.1441C139.687 69.1732 153.753 38.231 153.753 38.231C150.902 48.4557 148.73 58.8603 147.25 69.3766C146.064 80.7797 135.653 104.949 132.483 112.317C134.26 112.356 136.103 112.433 138.048 112.484C140.495 100.86 144.103 89.5155 148.818 78.6235C154.412 68.4632 175.587 35.1234 175.587 35.1234C171.541 45.6927 168.148 56.5035 165.425 67.4945C162.946 79.233 147.64 105.392 143.303 112.731L152.41 113.144C155.17 105.118 158.366 97.252 161.984 89.5798C167.263 80.1525 171.785 70.3166 175.508 60.1652C178.553 50.6101 182.248 34.6174 182.248 34.6174C182.248 34.6174 178.021 74.5485 172.04 87.4724C167.334 96.6157 161.709 105.25 155.251 113.239C159.221 113.431 163.295 113.595 167.382 113.812C170.516 101.947 175.397 90.6214 181.863 80.2101C193.137 66.4969 205.185 53.4453 217.948 41.1194C210.679 50.256 203.936 59.8023 197.75 69.7117C191.322 80.6987 174.468 107.703 170.587 114.035L179.877 114.512C182.406 107.865 190.996 85.8319 198.733 76.0591C207.931 64.4652 227.535 41.4636 227.535 41.4636C227.535 41.4636 213.832 67.2074 205.744 82.2307C199.183 93.5176 191.931 104.384 184.03 114.767C187.118 114.965 190.089 115.138 192.919 115.403C200.248 104.618 208.256 94.3142 216.894 84.5556C226.908 74.1927 250.144 55.4089 250.144 55.4089C250.144 55.4089 233.884 76.8226 222.481 89.7092C212.809 100.538 200.24 112.119 196.54 115.741C200.888 116.111 204.977 116.549 208.86 117.041C214.082 108.243 220.439 100.178 227.766 93.0549C239.832 81.6608 255.69 69.5609 255.69 69.5609C249.04 79.1945 241.701 88.3284 233.73 96.8905C225.91 104.854 216.723 113.505 212.353 117.522C215.443 117.942 218.379 118.401 221.159 118.901C227.274 111.349 234.031 104.344 241.353 97.966C251.44 89.8032 267.455 79.1605 267.455 79.1605C260.891 85.1206 254.794 91.5793 249.217 98.4795C241.993 106.501 233.757 113.541 224.717 119.421C228.017 120.009 231.057 120.663 233.93 121.305C238.958 115.118 244.742 109.593 251.146 104.859C257.466 101.334 276.874 90.1452 276.874 90.1452L255.092 109.217C249.195 113.974 242.907 118.22 236.296 121.912C238.831 122.531 241.197 123.139 243.408 123.786C246.882 119.723 257.797 107.296 261.945 105.832C266.998 104.023 284.763 93.3151 284.763 93.3151C284.763 93.3151 271.346 103.118 263.037 110.043C257.121 115.127 249.777 121.303 246.098 124.365C248.075 124.962 249.883 125.547 251.574 126.107C254.227 124.199 264.051 116.937 268.58 113.322C274.375 109.26 280.396 105.532 286.613 102.156C286.613 102.156 278.549 108.962 272.667 113.538C268.1 117.219 257.653 124.421 254.06 126.961C255.4 127.446 256.675 127.892 257.847 128.365C263.017 123.776 268.55 119.615 274.389 115.921C280.401 112.699 293.672 107.871 293.672 107.871C293.672 107.871 284.348 114.505 275.618 119.597C268.965 123.541 262.339 127.589 259.788 129.249L262.783 130.581C266.761 127.728 271.171 125.536 275.844 124.088C283.501 122.103 293.935 118.899 293.935 118.899C289.467 123.147 284.164 126.412 278.364 128.484C273.732 130.076 268.901 131.011 264.009 131.261C266.017 132.221 267.948 133.334 269.787 134.591C273.161 132.874 276.868 131.913 280.652 131.774C285.511 131.556 290.379 131.628 295.23 131.989C292.461 134.711 288.8 136.33 284.926 136.547C280.07 135.919 277.463 135.874 277.463 135.874C281.138 136.867 284.636 138.431 287.831 140.51C291.491 143.413 294.504 147.055 296.676 151.199C290.863 148.907 285.271 146.086 279.969 142.77C277 140.266 273.137 137.717 271.241 136.155C272.857 138.079 274.313 140.132 275.594 142.295C277.416 145.432 278.777 148.817 279.634 152.343C276.694 150.162 274.296 147.327 272.628 144.062C270.401 139.091 270.712 139.011 269.028 135.286C267.116 134.728 262.789 132.521 258.982 131.677C262.701 134.946 265.92 138.748 268.533 142.96C272.7 150.091 279.097 162.413 279.097 162.413C273.831 156.716 269.164 150.489 265.169 143.832C263.216 139.712 260.985 135.73 258.491 131.915C256.723 131.486 254.773 130.993 252.616 130.553C255.932 133.969 258.885 137.721 261.427 141.751C264.844 147.689 264.344 148.318 268.372 155.762C271.606 161.358 275.26 166.698 279.305 171.736C279.305 171.736 267.613 165.612 265.305 160.33C262.997 155.047 258.362 150.59 255.387 143.372C253.481 138.713 251.258 134.192 248.732 129.84C246.782 129.347 244.677 128.894 242.506 128.403C246.375 134.099 249.777 140.101 252.68 146.348C256.698 155.459 263.488 176.113 263.488 176.113C263.488 176.113 252.217 157.342 249.479 150.618C247.012 144.933 240.822 131.28 238.98 127.153C236.238 126.588 233.172 126.051 230.417 125.434C235.871 132.032 240.854 139.009 245.327 146.313C250.539 155.558 259.983 175.801 259.983 175.801C252.114 167.211 245.075 157.889 238.962 147.962C235.02 139.997 229.129 128.985 226.883 124.796C223.635 124.196 220.284 123.622 216.881 123.062C223.995 130.543 230.582 138.512 236.592 146.912C241.142 154.665 251.41 177.025 251.41 177.025C243.848 168.139 236.746 158.87 230.131 149.253C226.384 142.679 216.049 126.883 213.325 122.763C210.221 122.292 206.961 121.86 203.716 121.481C209.259 130.475 215.337 139.127 221.917 147.388C228.116 154.047 226.066 155.3 231.497 163.046C236.929 170.792 245.684 181.56 245.684 181.56C245.684 181.56 232.411 172.962 228.734 166.869C225.056 160.777 217.72 157.186 213.292 149.901C207.847 140.664 203.338 130.904 199.831 120.768C196.599 120.441 193.367 120.114 190.148 119.839C193.617 124.487 206.353 141.88 210.141 148.61C214.483 156.416 226.296 182.814 226.296 182.814C226.296 182.814 217.538 169.05 212.913 162.926C208.288 156.801 201.422 154.809 197.174 144.814C193.781 137.261 188.783 124.797 186.695 119.513C184.943 119.357 183.204 119.253 181.427 119.214C179.65 119.176 177.846 119.033 175.849 118.996C180.365 125.427 184.389 132.192 187.887 139.232C193.458 150.715 192.164 157.652 197.843 166.777C202.724 173.972 208.177 180.759 214.147 187.072C214.147 187.072 198.747 178.36 195.149 169.805C191.551 161.251 189.306 151.736 185.238 146.909C181.088 142.98 178.02 138.042 176.332 132.574C175.132 127.947 174.051 122.07 173.555 119.091C169.195 118.89 164.526 118.769 159.674 118.584C167.261 127.652 174.181 137.262 180.379 147.337C186.085 160.113 190.915 173.264 194.834 186.697C194.834 186.697 184.391 167.712 178.524 159.136C172.656 150.559 166.2 144.188 163.399 136.149C161.37 130.239 158.426 122.292 157.002 118.5L147.442 118.26C151.257 123.817 161.573 139.118 166.528 147.155C172.59 157.123 187.285 186.546 187.285 186.546C182.036 177.919 176.206 169.662 169.835 161.831C162.57 155.261 156.552 147.422 152.076 138.695C148.829 131.493 145.222 122.053 143.665 117.963C139.877 117.835 136.103 117.759 132.522 117.578C139.275 125.952 145.289 134.9 150.497 144.32C156.833 157.046 164.309 189.506 164.309 189.506C161.479 180.783 157.471 172.488 152.397 164.854C145.63 155.79 135.405 141.907 132.7 133.177C130.853 127.331 129.079 120.911 128.149 117.324L120.989 117.183C125.318 124.984 129.24 133.004 132.74 141.211C138.196 154.166 152.947 194.67 152.947 194.67C152.947 194.67 136.182 168.336 129.575 157.122C122.969 145.908 121.453 139.421 116.619 117.151C113.674 117.082 110.73 117.013 107.902 116.969C112.138 122.841 115.081 129.549 116.537 136.646C120.953 153.526 123.851 170.766 125.197 188.16C122.763 179.513 119.857 171.006 116.493 162.677C113.14 155.28 105.095 124.244 103.154 116.758C100.65 116.686 98.2122 116.652 95.8256 116.605C100.286 122.185 103.368 128.744 104.818 135.744C108.018 150.005 96.964 173.398 96.964 173.398C96.964 173.398 104.185 150.555 101.396 142.568C98.6078 134.58 95.6407 134.85 94.3497 128.805C93.5454 124.755 92.9643 120.664 92.609 116.551C89.8333 116.494 88.6276 116.529 86.0205 116.483C89.2209 123.791 90.3886 131.829 89.399 139.741C88.8224 145.879 86.5029 151.718 82.7162 156.564C83.3131 150.806 83.143 144.991 82.2102 139.275C81.5118 131.621 81.8728 123.91 83.283 116.361C63.9969 116.09 50.3792 115.958 50.3792 115.958L55.0648 109.75C55.0648 109.75 67.2947 109.853 87.4131 110.353C84.34 102.351 82.4575 93.9403 81.8264 85.3926C82.2275 73.7968 83.7126 62.2669 86.2622 50.955C85.4238 59.3272 85.1162 67.7457 85.3413 76.1595C84.8974 83.8198 88.2064 89.3422 89.249 97.8376Z" fill="#9D53D5"/>
</svg>
