<svg width="2276" height="790" viewBox="0 0 2276 790" fill="none" xmlns="http://www.w3.org/2000/svg">
<g opacity="0.8">
<path d="M138.807 448.73C13.2855 422.777 9.61 371.43 23.4628 349L195.99 356.306L2025.45 356.306L2238.95 666.068C2229.95 689.192 2178.7 732.678 2045.7 721.633C1879.45 707.827 1867.46 741.064 1829.47 763.923C1791.48 786.782 1738.93 807.557 1611.16 766.802C1483.39 726.046 1351.52 699.684 1223.24 734.588C1120.62 762.511 1038.32 755.56 1008.89 751.348C979.464 747.137 901.687 731.179 838.951 679.59C760.531 615.105 621.65 602.719 472.846 603.893C324.042 605.067 297.984 573.042 286.483 543.1C274.981 513.159 295.709 481.172 138.807 448.73Z" fill="#DEC2F4"/>
<path d="M163.807 426.504C38.2855 400.609 34.61 349.379 48.4628 327L220.99 334.289L2050.45 334.289L2263.95 643.349C2254.95 666.42 2203.7 709.808 2070.7 698.788C1904.45 685.013 1892.46 718.175 1854.47 740.982C1816.48 763.789 1763.93 784.518 1636.16 743.854C1508.39 703.191 1376.52 676.889 1248.24 711.713C1145.62 739.573 1063.32 732.638 1033.89 728.436C1004.46 724.234 926.687 708.312 863.951 656.841C785.531 592.501 646.65 580.144 497.846 581.315C349.042 582.487 322.984 550.534 311.483 520.66C299.981 490.786 320.709 458.872 163.807 426.504Z" fill="#9D53D5"/>
<path d="M121.807 392.811C-3.71447 363.974 -7.39 306.922 6.46278 282L178.99 290.118L2008.45 290.117L2221.95 634.297C2212.95 659.991 2161.7 708.309 2028.7 696.037C1862.45 680.697 1850.46 717.627 1812.47 743.026C1774.48 768.424 1721.93 791.508 1594.16 746.224C1466.39 700.94 1334.52 671.649 1206.24 710.431C1103.62 741.456 1021.32 733.733 991.893 729.054C962.464 724.374 884.687 706.643 821.951 649.323C743.531 577.672 604.65 563.91 455.846 565.215C307.042 566.519 280.984 530.936 269.483 497.667C257.981 464.399 278.709 428.857 121.807 392.811Z" fill="url(#paint0_linear_387_288)"/>
<path d="M174.861 365.716C49.2833 336.643 45.6063 279.125 59.4652 254L232.07 262.184L2062.35 262.184L2275.95 609.173C2266.95 635.076 2215.68 683.789 2082.61 671.417C1916.29 655.951 1904.29 693.183 1866.28 718.789C1828.27 744.395 1775.7 767.668 1647.88 722.014C1520.05 676.36 1388.12 646.829 1259.78 685.928C1157.11 717.207 1074.78 709.421 1045.34 704.703C1015.9 699.985 938.085 682.11 875.321 624.321C796.865 552.085 657.922 538.211 509.051 539.527C360.18 540.842 334.11 504.968 322.604 471.428C311.097 437.887 331.834 402.056 174.861 365.716Z" fill="#B87EE4"/>
<path d="M2081.55 147.312C2185.68 153.92 2207.81 195.957 2205.85 216.149V469L421.083 469V216.149C419.128 195.957 441.252 153.92 545.383 147.312C675.547 139.051 672.029 110.14 691.964 86.7349C711.899 63.3302 743.56 39.9256 854.962 58.5117C966.364 77.0977 1075.42 83.2931 1158.68 39.2372C1225.28 3.99255 1289.76 0 1313.47 0C1337.17 0 1401.65 3.99255 1468.26 39.2372C1551.51 83.2931 1660.57 77.0977 1771.97 58.5117C1883.37 39.9256 1915.04 63.3302 1934.97 86.7349C1954.91 110.14 1951.39 139.051 2081.55 147.312Z" fill="#D6B3F1"/>
<path d="M2044.63 171.312C2148.7 177.92 2170.81 219.957 2168.86 240.149V493L385.087 493V240.149C383.134 219.957 405.246 177.92 509.318 171.312C639.409 163.051 635.893 134.14 655.817 110.735C675.741 87.3302 707.385 63.9256 818.724 82.5117C930.063 101.098 1039.06 107.293 1122.27 63.2372C1188.84 27.9926 1253.28 24 1276.97 24C1300.67 24 1365.11 27.9926 1431.67 63.2372C1514.89 107.293 1623.88 101.098 1735.22 82.5117C1846.56 63.9256 1878.2 87.3302 1898.13 110.735C1918.05 134.14 1914.53 163.051 2044.63 171.312Z" fill="#9D53D5"/>
<path d="M2081.55 192.312C2185.68 198.92 2207.81 240.957 2205.85 261.149V514H421.083V261.149C419.128 240.957 441.252 198.92 545.383 192.312C675.547 184.051 672.029 155.14 691.964 131.735C711.899 108.33 743.56 84.9256 854.962 103.512C966.364 122.098 1075.42 128.293 1158.68 84.2372C1225.28 48.9926 1289.76 45 1313.47 45C1337.17 45 1401.65 48.9926 1468.26 84.2372C1551.51 128.293 1660.57 122.098 1771.97 103.512C1883.37 84.9256 1915.04 108.33 1934.97 131.735C1954.91 155.14 1951.39 184.051 2081.55 192.312Z" fill="url(#paint1_linear_387_288)"/>
<path d="M2100.62 206.312C2204.69 212.92 2226.8 254.957 2224.85 275.149V528H441.079V275.149C439.125 254.957 461.237 212.92 565.31 206.312C695.401 198.051 691.885 169.14 711.808 145.735C731.732 122.33 763.376 98.9256 874.715 117.512C986.054 136.098 1095.05 142.293 1178.26 98.2372C1244.83 62.9926 1309.27 59 1332.96 59C1356.66 59 1421.1 62.9926 1487.67 98.2372C1570.88 142.293 1679.87 136.098 1791.21 117.512C1902.55 98.9256 1934.19 122.33 1954.12 145.735C1974.04 169.14 1970.53 198.051 2100.62 206.312Z" fill="#B87EE4"/>
</g>
<defs>
<linearGradient id="paint0_linear_387_288" x1="1111.45" y1="772" x2="1137.66" y2="435.081" gradientUnits="userSpaceOnUse">
<stop stop-color="#8732C9" stop-opacity="0"/>
<stop offset="1" stop-color="#8732C9"/>
</linearGradient>
<linearGradient id="paint1_linear_387_288" x1="1338.87" y1="430.645" x2="1323.55" y2="44.6" gradientUnits="userSpaceOnUse">
<stop stop-color="#8732C9"/>
<stop offset="1" stop-color="#8732C9" stop-opacity="0"/>
</linearGradient>
</defs>
</svg>
