<svg width="309" height="344" viewBox="0 0 309 344" fill="none" xmlns="http://www.w3.org/2000/svg">
<path d="M219.301 109.78C218.778 114.122 218.549 118.495 218.615 122.868C216.211 122.911 213.708 122.983 211.105 123.085C209.702 111.342 207.05 99.7862 203.193 88.6167C198.479 78.6794 182.283 48.057 182.283 48.057C182.283 48.057 186.552 70.3682 189.962 82.3542C192.616 92.1457 202.621 115.334 206.084 123.282L197.575 123.517C193.941 110.61 189.388 97.9832 183.951 85.7354C177.881 76.0264 170.877 66.9405 163.039 58.6083C163.039 58.6083 176.988 76.3804 178.422 86.1888C179.857 95.9971 179.864 103.215 184.834 112.164C187.931 117.686 190.461 121.561 191.944 123.722L180.815 124.055C179.629 112.817 177.179 101.754 173.511 91.0764C168.862 81.1005 154.796 50.1425 154.796 50.1425C157.647 60.3724 159.82 70.7823 161.3 81.304C162.485 92.7129 172.896 116.895 176.066 124.267C174.289 124.305 172.447 124.383 170.501 124.433C168.054 112.803 164.446 101.453 159.731 90.5556C154.138 80.3901 132.962 47.0333 132.962 47.0333C137.008 57.6081 140.402 68.4243 143.124 79.4209C145.603 91.1654 160.909 117.338 165.247 124.68L156.139 125.093C153.379 117.064 150.183 109.194 146.565 101.517C141.287 92.0854 136.765 82.2444 133.042 72.0878C129.997 62.5279 126.302 46.527 126.302 46.527C126.302 46.527 130.528 86.4786 136.51 99.409C141.215 108.557 146.841 117.195 153.298 125.189C149.328 125.381 145.255 125.545 141.167 125.762C138.033 113.891 133.152 102.56 126.686 92.143C115.413 78.4228 103.365 65.3646 90.6018 53.0323C97.8704 62.1737 104.614 71.7248 110.799 81.6393C117.228 92.6319 134.082 119.65 137.962 125.985L128.672 126.462C126.144 119.812 117.554 97.7676 109.816 87.9899C100.619 76.3901 81.0151 53.3768 81.0151 53.3768C81.0151 53.3768 94.7172 79.1337 102.805 94.1646C109.366 105.457 116.619 116.329 124.52 126.718C121.432 126.916 118.46 127.089 115.631 127.354C108.302 116.563 100.294 106.254 91.6559 96.4907C81.642 86.1225 58.4052 67.3291 58.4052 67.3291C58.4052 67.3291 74.6654 88.7538 86.0681 101.647C95.7403 112.482 108.31 124.068 112.009 127.692C107.661 128.063 103.572 128.501 99.6899 128.993C94.4677 120.19 88.1106 112.121 80.7834 104.994C68.7177 93.5945 52.8592 81.4884 52.8592 81.4884C59.5091 91.1269 66.8485 100.265 74.8195 108.832C82.6393 116.799 91.8269 125.455 96.1968 129.474C93.1063 129.894 90.171 130.354 87.391 130.854C81.2757 123.298 74.519 116.289 67.1967 109.908C57.1095 101.741 41.0941 91.0929 41.0941 91.0929C47.6585 97.056 53.7561 103.518 59.333 110.422C66.5564 118.448 74.7923 125.491 83.8326 131.374C80.533 131.962 77.4921 132.616 74.6199 133.259C69.592 127.069 63.8078 121.541 57.4034 116.804C51.0834 113.278 31.6757 102.083 31.6757 102.083L53.4574 121.165C59.3546 125.924 65.6424 130.173 72.2538 133.867C69.719 134.486 67.3528 135.093 65.1419 135.741C61.6672 131.676 50.7528 119.243 46.6044 117.778C41.5515 115.968 23.7861 105.255 23.7861 105.255C23.7861 105.255 37.2031 115.062 45.5128 121.991C51.4285 127.078 58.7729 133.257 62.4519 136.32C60.4749 136.918 58.6666 137.503 56.9753 138.064C54.3225 136.155 44.4988 128.889 39.9693 125.272C34.1741 121.208 28.1533 117.478 21.9361 114.1C21.9361 114.1 30.0006 120.91 35.8823 125.488C40.45 129.171 50.8967 136.376 54.49 138.918C53.1496 139.403 51.8744 139.849 50.7026 140.322C45.5321 135.731 40 131.568 34.1602 127.872C28.1486 124.648 14.8775 119.818 14.8775 119.818C14.8775 119.818 24.2016 126.455 32.9312 131.55C39.5842 135.496 46.2103 139.546 48.7617 141.207L45.7661 142.539C41.7884 139.685 37.3788 137.492 32.7058 136.044C25.0481 134.057 14.6142 130.852 14.6142 130.852C19.0826 135.102 24.386 138.368 30.186 140.441C34.8172 142.035 39.6486 142.97 44.5404 143.22C42.5326 144.18 40.6011 145.294 38.763 146.551C35.3882 144.833 31.6812 143.872 27.8974 143.733C23.0387 143.515 18.1707 143.587 13.3191 143.949C16.089 146.672 19.7497 148.292 23.6231 148.508C28.4793 147.881 31.0864 147.835 31.0864 147.835C27.412 148.829 23.9138 150.394 20.7185 152.473C17.0585 155.378 14.0451 159.022 11.8736 163.168C17.6863 160.875 23.2788 158.052 28.581 154.734C31.5492 152.229 35.4127 149.679 37.3083 148.117C35.6924 150.041 34.2367 152.096 32.9559 154.259C31.1335 157.398 29.7726 160.785 28.9154 164.313C31.8552 162.131 34.2532 159.295 35.9213 156.028C38.1485 151.054 37.838 150.974 39.5214 147.247C41.4331 146.689 45.7601 144.48 49.568 143.636C45.8486 146.906 42.63 150.711 40.017 154.925C35.8494 162.059 29.4525 174.388 29.4525 174.388C34.7187 168.688 39.386 162.458 43.3801 155.797C45.3332 151.675 47.5646 147.692 50.0584 143.874C51.8263 143.445 53.7763 142.951 55.9333 142.512C52.6172 145.929 49.6643 149.684 47.1223 153.715C43.7056 159.656 44.2052 160.285 40.1772 167.733C36.944 173.332 33.2891 178.675 29.2447 183.715C29.2447 183.715 40.9369 177.589 43.2449 172.303C45.553 167.018 50.1872 162.558 53.1626 155.337C55.0682 150.676 57.2919 146.153 59.8177 141.798C61.7678 141.305 63.873 140.852 66.0435 140.36C62.1749 146.06 58.7726 152.064 55.8698 158.315C51.8514 167.431 45.0619 188.095 45.0619 188.095C45.0619 188.095 56.333 169.315 59.0701 162.586C61.5377 156.898 67.7272 143.239 69.5701 139.11C72.3118 138.544 75.3775 138.007 78.1328 137.39C72.6783 143.991 67.6959 150.972 63.223 158.279C58.0103 167.529 48.5663 187.783 48.5663 187.783C56.4361 179.188 63.4748 169.861 69.5872 159.93C73.5295 151.96 79.4208 140.943 81.6663 136.752C84.9142 136.151 88.2656 135.577 91.6687 135.016C84.5544 142.501 77.9681 150.475 71.9577 158.879C67.4079 166.636 57.1392 189.007 57.1392 189.007C64.7013 180.117 71.8039 170.843 78.4188 161.221C82.166 154.644 92.5002 138.84 95.2249 134.718C98.3288 134.246 101.588 133.814 104.834 133.435C99.2907 142.434 93.2126 151.09 86.6329 159.355C80.4339 166.018 82.4836 167.271 77.0521 175.021C71.6206 182.771 62.8657 193.545 62.8657 193.545C62.8657 193.545 76.1383 184.942 79.8159 178.846C83.4935 172.751 90.8296 169.158 95.258 161.869C100.702 152.628 105.212 142.863 108.718 132.722C111.95 132.394 115.183 132.067 118.402 131.792C114.933 136.443 102.197 153.844 98.4089 160.577C94.0662 168.388 82.2537 194.799 82.2537 194.799C82.2537 194.799 91.0119 181.029 95.6365 174.901C100.261 168.773 107.128 166.78 111.375 156.78C114.769 149.223 119.767 136.753 121.854 131.466C123.606 131.31 125.345 131.206 127.122 131.167C128.899 131.128 130.703 130.986 132.701 130.949C128.185 137.383 124.161 144.151 120.663 151.195C115.091 162.684 116.385 169.625 110.707 178.754C105.825 185.952 100.373 192.743 94.4021 199.06C94.4021 199.06 109.803 190.343 113.4 181.784C116.998 173.225 119.244 163.705 123.311 158.876C127.461 154.945 130.53 150.004 132.218 144.534C133.417 139.905 134.499 134.024 134.995 131.044C139.354 130.842 144.024 130.721 148.876 130.537C141.289 139.609 134.369 149.224 128.17 159.304C122.465 172.086 117.635 185.244 113.715 198.684C113.715 198.684 124.158 179.689 130.026 171.109C135.894 162.528 142.349 156.154 145.151 148.11C147.18 142.197 150.123 134.246 151.548 130.453L161.108 130.212C157.293 135.772 146.976 151.081 142.022 159.122C135.959 169.095 121.264 198.533 121.264 198.533C126.514 189.902 132.344 181.64 138.714 173.806C145.98 167.233 151.997 159.389 156.473 150.658C159.721 143.452 163.327 134.007 164.884 129.915C168.672 129.787 172.447 129.711 176.028 129.53C169.275 137.909 163.26 146.861 158.052 156.285C151.716 169.018 144.241 201.495 144.241 201.495C147.07 192.767 151.079 184.468 156.153 176.83C162.92 167.761 173.145 153.872 175.849 145.137C177.696 139.288 179.471 132.865 180.401 129.276L187.56 129.135C183.232 136.939 179.31 144.964 175.81 153.175C170.353 166.137 155.602 206.661 155.602 206.661C155.602 206.661 172.368 180.314 178.974 169.094C185.581 157.874 187.097 151.384 191.931 129.103C194.875 129.034 197.82 128.965 200.647 128.921C196.412 134.796 193.468 141.507 192.013 148.607C187.596 165.496 184.698 182.746 183.352 200.148C185.787 191.497 188.693 182.985 192.057 174.652C195.41 167.251 203.455 136.199 205.396 128.709C207.899 128.637 210.337 128.603 212.724 128.556C208.264 134.139 205.182 140.702 203.732 147.706C200.532 161.974 211.586 185.379 211.586 185.379C211.586 185.379 204.365 162.524 207.153 154.532C209.942 146.541 212.909 146.811 214.2 140.762C215.004 136.71 215.585 132.617 215.941 128.502C218.716 128.445 219.922 128.48 222.529 128.435C219.329 135.746 218.161 143.789 219.151 151.704C219.727 157.846 222.047 163.687 225.833 168.536C225.236 162.775 225.407 156.957 226.339 151.238C227.038 143.58 226.677 135.865 225.267 128.312C244.553 128.041 258.17 127.909 258.17 127.909L253.485 121.698C253.485 121.698 241.255 121.801 221.136 122.301C224.21 114.295 226.092 105.88 226.723 97.3281C226.322 85.7264 224.837 74.1907 222.287 62.873C223.126 71.2495 223.433 79.6722 223.208 88.0904C223.652 95.7545 220.343 101.28 219.301 109.78Z" fill="#B87EE4" fill-opacity="0.3"/>
<path d="M236.594 176.683C238.291 180.715 240.257 184.627 242.481 188.392C240.414 189.621 238.275 190.925 236.064 192.304C229.03 182.799 221.004 174.077 212.122 166.287C203.106 159.992 173.872 141.423 173.872 141.423C173.872 141.423 188.63 158.686 197.528 167.406C204.682 174.596 224.857 189.777 231.801 194.964L224.526 199.387C214.977 189.977 204.769 181.267 193.981 173.323C183.9 167.899 173.316 163.48 162.382 160.128C162.382 160.128 183.3 168.65 189.403 176.458C195.507 184.267 199.088 190.532 207.837 195.842C213.262 199.102 217.379 201.214 219.737 202.356L210.235 208.163C203.639 198.99 196.032 190.595 187.558 183.138C178.58 176.778 151.03 156.861 151.03 156.861C158.572 164.333 165.615 172.298 172.112 180.704C178.792 190.026 199.81 205.869 206.215 210.701C204.691 211.615 203.129 212.596 201.464 213.604C193.579 204.715 184.823 196.645 175.331 189.517C165.438 183.461 130.525 164.984 130.525 164.984C139.276 172.164 147.581 179.877 155.391 188.079C163.361 197.051 189.618 212.197 197.022 216.424L189.316 221.298C182.942 215.692 176.268 210.44 169.324 205.566C160.068 199.99 151.266 193.684 143.002 186.708C135.623 179.913 124.489 167.847 124.489 167.847C124.489 167.847 147.946 200.454 159.545 208.72C168.163 214.333 177.327 219.047 186.895 222.789C183.542 224.924 180.085 227.086 176.642 229.301C168.04 220.543 158.189 213.121 147.414 207.278C130.827 200.95 113.895 195.58 96.7012 191.196C107.542 195.532 118.13 200.486 128.412 206.031C139.44 212.392 167.461 227.505 173.969 231.084L166.136 236.104C160.646 231.581 142.267 216.692 130.704 212.034C116.97 206.519 88.5447 196.248 88.5447 196.248C88.5447 196.248 113.203 211.827 127.672 220.874C138.964 227.43 150.647 233.278 162.656 238.384C160.071 240.087 157.576 241.711 155.249 243.344C143.539 237.604 131.478 232.62 119.14 228.421C105.307 224.38 75.8155 219.576 75.8155 219.576C75.8155 219.576 100.55 230.124 116.84 235.67C130.607 240.286 147.263 244.119 152.271 245.432C148.678 247.91 145.343 250.318 142.215 252.67C133.319 247.613 123.801 243.756 113.907 241.198C97.781 237.277 78.0107 234.624 78.0107 234.624C88.5602 239.699 99.4612 243.998 110.627 247.488C121.366 250.532 133.633 253.495 139.419 254.82C136.942 256.716 134.621 258.571 132.454 260.384C123.4 256.852 114.06 254.114 104.539 252.201C91.7326 250.108 72.5481 248.799 72.5481 248.799C81.2032 250.724 89.6999 253.314 97.9631 256.546C108.212 259.937 118.854 261.972 129.62 262.6C127.045 264.746 124.728 266.822 122.552 268.804C115.119 265.92 107.357 263.986 99.4479 263.047C92.212 263.117 69.8101 263.014 69.8101 263.014L98.1801 268.791C105.659 270 113.225 270.574 120.797 270.505C118.902 272.299 117.148 274 115.548 275.659C110.517 273.851 94.8788 268.462 90.5502 269.246C85.2648 270.179 64.5278 269.681 64.5278 269.681C64.5278 269.681 81.0392 271.548 91.6885 273.447C99.3461 274.932 108.786 276.658 113.498 277.495C112.077 278.994 110.796 280.4 109.605 281.725C106.355 281.382 94.2238 279.941 88.4981 279.044C81.4517 278.388 74.3748 278.133 67.3016 278.281C67.3016 278.281 77.679 280.198 85.0553 281.259C90.8466 282.193 103.489 283.273 107.869 283.699C106.945 284.785 106.058 285.805 105.275 286.797C98.51 285.372 91.6428 284.498 84.7403 284.184C77.9217 284.363 64.0025 286.747 64.0025 286.747C64.0025 286.747 75.3884 287.89 85.4943 287.987C93.2273 288.116 100.988 288.349 104.027 288.527L102.085 291.169C97.2163 290.662 92.3 290.943 87.5238 292.002C79.8886 294.073 69.238 296.461 69.238 296.461C75.2243 297.938 81.4483 298.146 87.5129 297.071C92.3248 296.159 96.9847 294.577 101.358 292.369C100.089 294.198 98.9627 296.122 97.989 298.126C94.207 298.307 90.5109 299.31 87.1554 301.065C82.8272 303.285 78.6345 305.76 74.5994 308.48C78.354 309.472 82.336 309.064 85.8077 307.332C89.7149 304.379 91.9569 303.047 91.9569 303.047C89.2576 305.732 86.9941 308.826 85.2483 312.216C83.5079 316.553 82.6949 321.212 82.8622 325.89C86.7756 321.017 90.2352 315.792 93.1976 310.282C94.5352 306.634 96.6278 302.504 97.5007 300.207C97.0503 302.68 96.8033 305.186 96.7624 307.7C96.7339 311.33 97.2289 314.946 98.2319 318.436C99.7046 315.083 100.383 311.431 100.214 307.766C99.6855 302.342 99.3759 302.426 98.9925 298.355C100.376 296.922 103.041 292.859 105.931 290.237C104.32 294.922 103.408 299.822 103.225 304.778C103.139 313.041 103.688 326.921 103.688 326.921C105.439 319.359 106.408 311.634 106.579 303.868C106.234 299.32 106.199 294.753 106.475 290.201C107.797 288.952 109.247 287.556 110.903 286.105C109.715 290.717 109.009 295.443 108.798 300.204C108.772 307.059 109.518 307.358 109.708 315.824C109.672 322.29 109.144 328.743 108.127 335.126C108.127 335.126 115.249 324.008 114.636 318.273C114.023 312.538 115.84 306.366 114.848 298.619C114.195 293.626 113.886 288.594 113.923 283.56C115.373 282.164 116.977 280.727 118.619 279.224C118.081 286.093 118.1 292.995 118.674 299.863C119.698 309.773 124.035 331.088 124.035 331.088C124.035 331.088 124.524 309.188 123.569 301.987C122.896 295.823 121.507 280.89 121.063 276.39C123.164 274.539 125.561 272.553 127.649 270.651C126.18 279.089 125.31 287.622 125.043 296.187C125.097 306.806 126.924 329.08 126.924 329.08C129.503 317.713 130.998 306.123 131.389 294.466C130.866 285.589 130.527 273.099 130.402 268.345C132.926 266.213 135.552 264.053 138.231 261.879C135.758 271.907 133.986 282.098 132.928 292.378C132.817 301.371 134.977 325.893 134.977 325.893C137.143 314.422 138.719 302.846 139.7 291.209C139.697 283.638 140.847 264.788 141.172 259.856C143.634 257.908 146.251 255.917 148.883 253.978C148.525 264.543 147.532 275.075 145.91 285.516C143.825 294.376 146.226 294.449 145.347 303.873C144.467 313.298 142.198 326.996 142.198 326.996C142.198 326.996 149.466 312.944 149.642 305.826C149.817 298.708 154.41 291.95 154.647 283.424C154.799 272.697 153.88 261.98 151.903 251.433C154.549 249.546 157.194 247.66 159.854 245.825C159.144 251.584 156.7 273.013 156.744 280.739C156.84 289.677 159.66 318.474 159.66 318.474C159.66 318.474 160.448 302.171 161.43 294.556C162.412 286.94 167.389 281.805 166.126 271.013C165.331 262.766 163.497 249.457 162.692 243.83C164.136 242.826 165.595 241.873 167.119 240.959C168.644 240.044 170.14 239.026 171.856 238.003C171.121 245.831 170.977 253.705 171.428 261.558C172.278 274.299 176.839 279.686 176.428 290.431C175.753 299.104 174.38 307.705 172.322 316.152C172.322 316.152 181.382 300.945 180.269 291.728C179.155 282.51 176.391 273.127 177.532 266.916C179.19 261.445 179.408 255.631 178.165 250.043C176.914 245.428 174.942 239.783 173.897 236.949C177.583 234.613 181.58 232.193 185.702 229.627C183.605 241.269 182.356 253.051 181.964 264.879C183.339 278.81 185.66 292.634 188.912 306.251C188.912 306.251 188.576 284.575 189.423 274.213C190.27 263.851 192.72 255.113 191.17 246.738C190.004 240.596 188.623 232.23 187.982 228.229L196.166 223.281C195.607 230.002 194.227 248.414 193.906 257.854C193.579 269.522 195.394 302.377 195.394 302.377C195.679 292.278 196.652 282.211 198.305 272.248C201.361 262.937 202.703 253.14 202.267 243.338C201.518 235.468 199.974 225.477 199.3 221.15C202.527 219.161 205.768 217.224 208.788 215.291C207.072 225.917 206.281 236.675 206.425 247.443C207.228 261.644 216.818 293.559 216.818 293.559C214.954 284.575 214.325 275.38 214.95 266.23C216.337 254.998 218.339 237.864 216.363 228.936C215.07 222.94 213.431 216.482 212.461 212.903L218.61 209.231C218.715 218.156 219.282 227.07 220.309 235.938C221.989 249.901 229.246 292.415 229.246 292.415C229.246 292.415 230.76 261.217 230.942 248.196C231.124 235.176 229.226 228.787 222.39 207.037C224.914 205.517 227.437 203.997 229.871 202.558C229.102 209.76 229.869 217.048 232.121 223.938C236.649 240.797 242.674 257.217 250.124 273C247.954 264.278 246.263 255.444 245.058 246.538C244.305 238.447 235.915 207.487 233.891 200.02C236.03 198.716 238.131 197.478 240.181 196.253C239.071 203.314 239.644 210.542 241.853 217.345C246.14 231.324 267.333 246.174 267.333 246.174C267.333 246.174 249.742 229.902 248.207 221.578C246.671 213.254 249.382 212.018 247.508 206.124C246.199 202.206 244.677 198.363 242.948 194.612C245.33 193.186 246.395 192.619 248.637 191.287C249.478 199.224 252.447 206.789 257.227 213.174C260.769 218.222 265.677 222.147 271.367 224.481C267.996 219.773 265.262 214.635 263.24 209.205C260.054 202.207 255.92 195.685 250.954 189.823C267.572 180.027 279.335 173.161 279.335 173.161L272.189 170.089C272.189 170.089 261.617 176.242 244.39 186.65C243.094 178.172 240.562 169.93 236.875 162.188C230.78 152.31 223.777 143.026 215.958 134.46C220.834 141.32 225.273 148.483 229.247 155.907C233.428 162.344 233.29 168.784 236.594 176.683Z" fill="#B87EE4" fill-opacity="0.3"/>
<path d="M223.594 164.677C225.291 168.709 227.257 172.621 229.481 176.386C227.414 177.615 225.275 178.919 223.064 180.298C216.03 170.793 208.004 162.071 199.122 154.28C190.106 147.986 160.872 129.417 160.872 129.417C160.872 129.417 175.63 146.68 184.528 155.4C191.682 162.59 211.857 177.771 218.801 182.958L211.526 187.381C201.977 177.971 191.769 169.261 180.981 161.317C170.9 155.893 160.316 151.474 149.382 148.122C149.382 148.122 170.3 156.644 176.403 164.452C182.507 172.26 186.088 178.526 194.837 183.836C200.262 187.096 204.379 189.208 206.737 190.35L197.235 196.157C190.639 186.984 183.032 178.588 174.558 171.132C165.58 164.772 138.03 144.855 138.03 144.855C145.572 152.327 152.615 160.292 159.112 168.697C165.792 178.02 186.81 193.863 193.215 198.695C191.691 199.609 190.129 200.59 188.464 201.598C180.579 192.709 171.823 184.639 162.331 177.511C152.438 171.454 117.525 152.978 117.525 152.978C126.276 160.158 134.581 167.87 142.391 176.073C150.361 185.045 176.618 200.191 184.022 204.417L176.316 209.292C169.942 203.686 163.268 198.434 156.324 193.56C147.068 187.984 138.266 181.678 130.002 174.701C122.623 167.907 111.489 155.841 111.489 155.841C111.489 155.841 134.946 188.447 146.545 196.713C155.163 202.327 164.327 207.041 173.895 210.783C170.542 212.918 167.085 215.08 163.642 217.295C155.04 208.537 145.189 201.115 134.414 195.272C117.827 188.944 100.895 183.574 83.7012 179.19C94.542 183.526 105.13 188.479 115.412 194.025C126.44 200.386 154.461 215.499 160.969 219.078L153.136 224.098C147.646 219.574 129.267 204.685 117.704 200.028C103.97 194.512 75.5447 184.241 75.5447 184.241C75.5447 184.241 100.203 199.821 114.672 208.867C125.964 215.424 137.647 221.272 149.656 226.378C147.071 228.081 144.576 229.705 142.249 231.338C130.539 225.598 118.478 220.614 106.14 216.415C92.3066 212.374 62.8155 207.57 62.8155 207.57C62.8155 207.57 87.5498 218.118 103.84 223.664C117.607 228.28 134.263 232.112 139.271 233.426C135.678 235.904 132.343 238.312 129.215 240.664C120.319 235.607 110.801 231.749 100.907 229.192C84.781 225.271 65.0107 222.618 65.0107 222.618C75.5602 227.693 86.4612 231.992 97.6274 235.482C108.366 238.525 120.633 241.489 126.419 242.814C123.942 244.71 121.621 246.565 119.454 248.378C110.4 244.846 101.06 242.108 91.5391 240.195C78.7326 238.102 59.5481 236.793 59.5481 236.793C68.2032 238.718 76.6999 241.308 84.9631 244.54C95.2122 247.93 105.854 249.965 116.62 250.594C114.045 252.74 111.728 254.816 109.552 256.798C102.119 253.914 94.3566 251.98 86.4479 251.041C79.212 251.111 56.8101 251.008 56.8101 251.008L85.1801 256.785C92.6592 257.994 100.225 258.568 107.797 258.499C105.902 260.293 104.148 261.994 102.548 263.653C97.5168 261.844 81.8788 256.456 77.5502 257.24C72.2648 258.173 51.5278 257.674 51.5278 257.674C51.5278 257.674 68.0392 259.542 78.6885 261.441C86.3461 262.926 95.7856 264.652 100.498 265.489C99.077 266.988 97.7964 268.394 96.6049 269.719C93.3551 269.376 81.2238 267.935 75.4981 267.038C68.4517 266.382 61.3748 266.127 54.3016 266.275C54.3016 266.275 64.679 268.192 72.0553 269.253C77.8466 270.187 90.4893 271.267 94.8692 271.693C93.9451 272.779 93.0585 273.799 92.2751 274.791C85.51 273.366 78.6428 272.492 71.7403 272.177C64.9217 272.357 51.0025 274.741 51.0025 274.741C51.0025 274.741 62.3884 275.884 72.4943 275.981C80.2273 276.11 87.9884 276.343 91.0271 276.521L89.085 279.163C84.2163 278.656 79.3 278.937 74.5238 279.996C66.8886 282.067 56.238 284.455 56.238 284.455C62.2243 285.932 68.4483 286.14 74.5129 285.065C79.3248 284.153 83.9847 282.57 88.3577 280.363C87.0889 282.192 85.9627 284.116 84.989 286.12C81.207 286.301 77.5109 287.304 74.1554 289.059C69.8272 291.278 65.6345 293.754 61.5994 296.473C65.354 297.466 69.336 297.058 72.8077 295.326C76.7149 292.373 78.9569 291.041 78.9569 291.041C76.2576 293.726 73.9941 296.82 72.2483 300.21C70.5079 304.547 69.6949 309.206 69.8622 313.884C73.7756 309.011 77.2352 303.786 80.1976 298.276C81.5352 294.628 83.6278 290.498 84.5007 288.201C84.0503 290.674 83.8033 293.18 83.7624 295.694C83.7339 299.324 84.2289 302.94 85.2319 306.43C86.7046 303.077 87.3829 299.425 87.2138 295.76C86.6855 290.336 86.3759 290.42 85.9925 286.349C87.3763 284.916 90.0411 280.852 92.9306 278.231C91.3195 282.916 90.4079 287.816 90.2254 292.772C90.1387 301.035 90.6881 314.915 90.6881 314.915C92.4395 307.353 93.4081 299.628 93.5786 291.862C93.2336 287.314 93.1988 282.747 93.4746 278.195C94.7974 276.945 96.2468 275.55 97.9026 274.099C96.7147 278.711 96.0093 283.437 95.7978 288.198C95.7724 295.053 96.518 295.352 96.7079 303.818C96.6724 310.284 96.1438 316.737 95.1268 323.12C95.1268 323.12 102.249 312.002 101.636 306.267C101.023 300.532 102.84 294.36 101.848 286.613C101.195 281.62 100.886 276.588 100.923 271.554C102.373 270.158 103.977 268.721 105.619 267.218C105.081 274.087 105.1 280.989 105.674 287.857C106.698 297.767 111.035 319.082 111.035 319.082C111.035 319.082 111.524 297.182 110.569 289.981C109.896 283.817 108.507 268.884 108.063 264.384C110.164 262.533 112.561 260.547 114.649 258.644C113.18 267.083 112.31 275.616 112.043 284.181C112.097 294.8 113.924 317.074 113.924 317.074C116.503 305.707 117.998 294.116 118.389 282.459C117.866 273.582 117.527 261.093 117.402 256.339C119.926 254.207 122.552 252.047 125.231 249.873C122.758 259.901 120.986 270.092 119.928 280.372C119.817 289.365 121.977 313.887 121.977 313.887C124.143 302.416 125.719 290.839 126.7 279.203C126.697 271.632 127.847 252.782 128.172 247.85C130.634 245.901 133.251 243.911 135.883 241.972C135.525 252.537 134.532 263.068 132.91 273.51C130.825 282.37 133.226 282.443 132.347 291.867C131.467 301.292 129.198 314.99 129.198 314.99C129.198 314.99 136.466 300.938 136.642 293.82C136.817 286.702 141.41 279.944 141.647 271.418C141.799 260.691 140.88 249.974 138.903 239.427C141.549 237.54 144.194 235.653 146.854 233.819C146.144 239.578 143.7 261.007 143.744 268.733C143.84 277.67 146.66 306.467 146.66 306.467C146.66 306.467 147.448 290.165 148.43 282.549C149.412 274.934 154.389 269.798 153.126 259.007C152.331 250.76 150.497 237.451 149.692 231.824C151.136 230.82 152.595 229.867 154.119 228.953C155.644 228.038 157.14 227.02 158.856 225.997C158.121 233.825 157.977 241.699 158.428 249.552C159.278 262.293 163.839 267.68 163.428 278.425C162.753 287.098 161.38 295.699 159.322 304.146C159.322 304.146 168.382 288.939 167.269 279.721C166.155 270.504 163.391 261.121 164.532 254.91C166.19 249.439 166.408 243.625 165.165 238.037C163.914 233.421 161.942 227.777 160.897 224.943C164.583 222.607 168.58 220.186 172.702 217.621C170.605 229.262 169.356 241.044 168.964 252.873C170.339 266.804 172.66 280.627 175.912 294.245C175.912 294.245 175.576 272.569 176.423 262.207C177.27 251.845 179.72 243.107 178.17 234.732C177.004 228.59 175.623 220.224 174.982 216.223L183.166 211.275C182.607 217.996 181.227 236.408 180.906 245.848C180.579 257.516 182.394 290.371 182.394 290.371C182.679 280.272 183.652 270.205 185.305 260.242C188.361 250.931 189.703 241.134 189.267 231.332C188.518 223.462 186.974 213.471 186.3 209.144C189.527 207.155 192.768 205.218 195.788 203.285C194.072 213.911 193.281 224.669 193.425 235.437C194.228 249.638 203.818 281.553 203.818 281.553C201.954 272.569 201.325 263.374 201.95 254.224C203.337 242.992 205.339 225.858 203.363 216.93C202.07 210.934 200.431 204.476 199.461 200.897L205.61 197.225C205.715 206.15 206.282 215.064 207.309 223.932C208.989 237.895 216.246 280.408 216.246 280.408C216.246 280.408 217.76 249.211 217.942 236.19C218.124 223.169 216.226 216.781 209.39 195.03C211.914 193.511 214.437 191.991 216.871 190.551C216.102 197.754 216.869 205.042 219.121 211.931C223.649 228.79 229.674 245.211 237.124 260.994C234.954 252.272 233.263 243.438 232.058 234.532C231.305 226.441 222.915 195.481 220.891 188.013C223.03 186.709 225.131 185.471 227.181 184.247C226.071 191.308 226.644 198.536 228.853 205.339C233.14 219.318 254.333 234.168 254.333 234.168C254.333 234.168 236.742 217.896 235.207 209.572C233.671 201.248 236.382 200.012 234.508 194.118C233.199 190.2 231.677 186.356 229.948 182.606C232.33 181.18 233.395 180.613 235.637 179.281C236.478 187.218 239.447 194.783 244.227 201.168C247.769 206.216 252.677 210.141 258.367 212.475C254.996 207.766 252.262 202.629 250.24 197.199C247.054 190.201 242.92 183.679 237.954 177.817C254.572 168.02 266.335 161.155 266.335 161.155L259.189 158.083C259.189 158.083 248.617 164.236 231.39 174.643C230.094 166.166 227.562 157.923 223.875 150.182C217.78 140.304 210.777 131.02 202.958 122.453C207.834 129.314 212.273 136.477 216.247 143.901C220.428 150.338 220.29 156.778 223.594 164.677Z" fill="#9D53D5"/>
<path d="M219.529 97.8625C219.006 102.205 218.777 106.578 218.843 110.95C216.439 110.993 213.935 111.066 211.331 111.168C209.93 99.4256 207.279 87.8711 203.424 76.7027C198.71 66.7665 182.516 36.1477 182.516 36.1477C182.516 36.1477 186.783 58.4571 190.192 70.442C192.845 80.2327 202.849 103.418 206.311 111.365L197.801 111.602C194.168 98.6952 189.616 86.0702 184.18 73.8237C178.111 64.1159 171.107 55.0313 163.27 46.7005C163.27 46.7005 177.218 64.47 178.651 74.2776C180.085 84.0852 180.091 91.3027 185.061 100.251C188.158 105.772 190.687 109.647 192.17 111.807L181.04 112.141C179.855 100.904 177.406 89.8419 173.74 79.1655C169.091 69.1907 155.028 38.2361 155.028 38.2361C157.878 48.465 160.049 58.8741 161.529 69.3949C162.713 80.8031 173.121 104.982 176.291 112.353C174.514 112.392 172.671 112.47 170.726 112.521C168.28 100.891 164.673 89.5426 159.959 78.6462C154.366 68.4819 133.193 35.1294 133.193 35.1294C137.238 45.7031 140.631 56.5183 143.352 67.514C145.83 79.2575 161.134 105.427 165.471 112.768L156.363 113.182C153.603 105.154 150.408 97.2841 146.791 89.6088C141.513 80.1779 136.991 70.338 133.27 60.1824C130.226 50.6234 126.532 34.6239 126.532 34.6239C126.532 34.6239 130.754 74.5726 136.735 87.5016C141.44 96.6485 147.064 105.286 153.521 113.278C149.551 113.47 145.477 113.635 141.39 113.852C138.257 101.982 133.377 90.6523 126.911 80.2371C115.639 66.519 103.592 53.4628 90.8291 41.1327C98.0972 50.2727 104.84 59.8225 111.025 69.7357C117.452 80.7269 134.304 107.742 138.184 114.076L128.894 114.554C126.366 107.904 117.778 85.8624 110.041 76.086C100.844 64.4879 81.2417 41.4781 81.2417 41.4781C81.2417 41.4781 94.9419 67.232 103.029 82.2611C109.589 93.5524 116.841 104.423 124.741 114.81C121.653 115.008 118.681 115.182 115.851 115.447C108.523 104.658 100.516 94.3504 91.8785 84.5883C81.8652 74.2218 58.629 55.4321 58.629 55.4321C58.629 55.4321 74.8879 76.8537 86.2899 89.7449C95.9614 100.578 108.531 112.162 112.23 115.785C107.882 116.157 103.792 116.595 99.9096 117.087C94.6879 108.286 88.3314 100.218 81.0045 93.0927C68.9393 81.6947 53.0812 69.5911 53.0812 69.5911C59.7304 79.2283 67.0693 88.3655 75.0398 96.9306C82.8592 104.897 92.0465 113.55 96.4162 117.569C93.3255 117.989 90.39 118.45 87.6097 118.95C81.4949 111.395 74.7385 104.388 67.4165 98.0074C57.3295 89.842 41.3144 79.1963 41.3144 79.1963C47.8785 85.1584 53.9757 91.6193 59.5523 98.522C66.7752 106.547 75.0108 113.589 84.0511 119.471C80.7512 120.058 77.71 120.713 74.8376 121.356C69.81 115.167 64.0261 109.64 57.6218 104.904C51.3018 101.379 31.8942 90.1869 31.8942 90.1869L53.6751 109.265C59.5722 114.023 65.8599 118.271 72.4712 121.964C69.9362 122.584 67.5698 123.191 65.3587 123.839C61.8843 119.775 50.9706 107.343 46.822 105.879C41.7691 104.07 24.0037 93.3591 24.0037 93.3591C24.0037 93.3591 37.4205 103.165 45.7299 110.092C51.6454 115.178 58.9896 121.356 62.6685 124.418C60.6913 125.016 58.8829 125.602 57.1914 126.163C54.5387 124.254 44.7151 116.989 40.1858 113.373C34.3906 109.31 28.3699 105.581 22.1527 102.204C22.1527 102.204 30.2169 109.013 36.0985 113.59C40.6661 117.272 51.1126 124.476 54.7059 127.017C53.3653 127.502 52.09 127.949 50.9181 128.422C45.7477 123.831 40.2157 119.669 34.376 115.974C28.3644 112.751 15.093 107.923 15.093 107.923C15.093 107.923 24.4169 114.558 33.1466 119.652C39.7995 123.597 46.4255 127.646 48.977 129.306L45.981 130.639C42.0034 127.785 37.5938 125.593 32.9206 124.145C25.2627 122.16 14.8285 118.956 14.8285 118.956C19.2967 123.205 24.6001 126.47 30.4002 128.543C35.0315 130.136 39.8631 131.071 44.7552 131.32C42.7471 132.28 40.8154 133.394 38.9771 134.651C35.6023 132.934 31.8952 131.973 28.1111 131.835C23.2521 131.617 18.3838 131.69 13.5319 132.052C16.3017 134.775 19.9625 136.394 23.8361 136.61C28.6926 135.982 31.2998 135.936 31.2998 135.936C27.6252 136.93 24.1266 138.496 20.9308 140.575C17.2703 143.48 14.2563 147.124 12.0843 151.27C17.8976 148.977 23.4907 146.153 28.7936 142.835C31.7622 140.33 35.6262 137.779 37.5221 136.217C35.9059 138.142 34.4499 140.196 33.1688 142.36C31.3459 145.499 29.9846 148.885 29.127 152.413C32.0672 150.231 34.4656 147.395 36.1342 144.128C38.362 139.155 38.0516 139.074 39.7354 135.348C41.6473 134.789 45.9748 132.58 49.783 131.735C46.063 135.006 42.8439 138.81 40.2302 143.025C36.0616 150.159 29.663 162.488 29.663 162.488C34.9302 156.788 39.5984 150.557 43.5935 143.897C45.5471 139.775 47.779 135.791 50.2735 131.974C52.0415 131.544 53.9917 131.05 56.1488 130.61C52.8322 134.028 49.8786 137.783 47.3361 141.814C43.9186 147.755 44.4181 148.384 40.3891 155.832C37.1551 161.431 33.4994 166.774 29.4541 171.814C29.4541 171.814 41.1477 165.687 43.4565 160.402C45.7652 155.117 50.4002 150.657 53.3766 143.435C55.2828 138.774 57.5071 134.251 60.0336 129.897C61.9838 129.403 64.0892 128.95 66.2599 128.458C62.3905 134.158 58.9872 140.162 56.0836 146.413C52.0641 155.528 45.2719 176.192 45.2719 176.192C45.2719 176.192 56.5456 157.412 59.2837 150.684C61.752 144.996 67.9434 131.336 69.7868 127.207C72.5288 126.642 75.5947 126.104 78.3502 125.486C72.8947 132.088 67.9113 139.069 63.4373 146.376C58.2233 155.626 48.7765 175.879 48.7765 175.879C56.6477 167.284 63.6878 157.958 69.8017 148.026C73.7451 140.056 79.6379 129.039 81.884 124.848C85.1322 124.247 88.4838 123.673 91.8872 123.112C84.7717 130.597 78.1841 138.571 72.1724 146.975C67.6216 154.732 57.3498 177.103 57.3498 177.103C64.9133 168.212 72.0173 158.938 78.6337 149.316C82.3818 142.739 92.7184 126.935 95.4436 122.813C98.5478 122.341 101.807 121.909 105.053 121.529C99.5089 130.528 93.4295 139.184 86.8484 147.449C80.6484 154.113 82.6981 155.365 77.2654 163.116C71.8328 170.866 63.0762 181.64 63.0762 181.64C63.0762 181.64 76.3504 173.036 80.0289 166.94C83.7074 160.845 91.0443 157.251 95.4738 149.963C100.92 140.721 105.43 130.956 108.938 120.815C112.17 120.488 115.403 120.16 118.622 119.884C115.152 124.535 102.414 141.937 98.6251 148.67C94.2812 156.481 82.4652 182.892 82.4652 182.892C82.4652 182.892 91.2254 169.121 95.8509 162.993C100.476 156.866 107.344 154.871 111.592 144.872C114.987 137.315 119.987 124.845 122.075 119.558C123.827 119.402 125.566 119.298 127.343 119.259C129.12 119.22 130.924 119.077 132.922 119.04C128.405 125.474 124.38 132.243 120.881 139.287C115.308 150.775 116.601 157.715 110.922 166.845C106.039 174.043 100.585 180.834 94.6138 187.151C94.6138 187.151 110.016 178.433 113.615 169.874C117.214 161.315 119.461 151.796 123.529 146.967C127.68 143.036 130.749 138.094 132.438 132.624C133.638 127.995 134.72 122.115 135.216 119.135C139.576 118.933 144.246 118.811 149.098 118.626C141.51 127.699 134.588 137.314 128.388 147.394C122.681 160.176 117.85 173.333 113.928 186.773C113.928 186.773 124.374 167.778 130.243 159.198C136.112 150.617 142.568 144.242 145.371 136.199C147.401 130.286 150.345 122.335 151.771 118.542L161.331 118.3C157.515 123.861 147.196 139.17 142.241 147.21C136.177 157.183 121.478 186.621 121.478 186.621C126.728 177.99 132.56 169.728 138.931 161.894C146.198 155.32 152.217 147.476 156.694 138.745C159.942 131.539 163.55 122.095 165.108 118.003C168.896 117.874 172.671 117.798 176.252 117.616C169.498 125.995 163.482 134.948 158.272 144.372C151.935 157.105 144.455 189.58 144.455 189.58C147.286 180.853 151.295 172.554 156.371 164.916C163.139 155.847 173.366 141.957 176.072 133.222C177.919 127.374 179.695 120.951 180.625 117.362L187.785 117.22C183.456 125.025 179.532 133.049 176.031 141.26C170.573 154.221 155.817 194.745 155.817 194.745C155.817 194.745 172.586 168.398 179.194 157.178C185.802 145.958 187.319 139.468 192.156 117.188C195.101 117.118 198.045 117.049 200.873 117.005C196.637 122.88 193.692 129.591 192.236 136.691C187.817 153.579 184.917 170.828 183.569 188.23C186.005 179.578 188.912 171.067 192.277 162.734C195.631 155.333 203.68 124.282 205.622 116.793C208.125 116.72 210.564 116.686 212.95 116.639C208.489 122.222 205.407 128.784 203.956 135.788C200.754 150.056 211.806 173.458 211.806 173.458C211.806 173.458 204.587 150.605 207.377 142.614C210.166 134.623 213.133 134.892 214.425 128.844C215.23 124.792 215.811 120.7 216.167 116.585C218.943 116.527 220.149 116.562 222.756 116.516C219.555 123.828 218.386 131.87 219.375 139.785C219.951 145.926 222.27 151.767 226.056 156.615C225.46 150.854 225.631 145.037 226.564 139.317C227.263 131.66 226.903 123.946 225.494 116.393C244.781 116.12 258.4 115.987 258.4 115.987L253.714 109.777C253.714 109.777 241.484 109.881 221.364 110.383C224.438 102.377 226.322 93.9627 226.954 85.4111C226.554 73.8101 225.07 62.2752 222.521 50.9585C223.359 59.3344 223.666 67.7566 223.44 76.1742C223.883 83.8379 220.573 89.3631 219.529 97.8625Z" fill="#9D53D5"/>
</svg>
