<svg width="566" height="332" viewBox="0 0 566 332" fill="none" xmlns="http://www.w3.org/2000/svg">
<g clip-path="url(#clip0_387_344)">
<path d="M23.742 0.513779L245.658 0.513779L245.658 130.842L23.742 130.842L23.742 0.513779Z" stroke="#261096" stroke-width="1.56" stroke-miterlimit="10"/>
<path d="M313.453 198.259L307.104 158.158V149.852C307.104 149.852 318.01 148.746 319.874 143.68C321.738 138.615 313.361 109.382 312.261 107.169C311.161 104.956 310.983 103.783 308.309 102.42C305.635 101.056 298.18 97.0581 295.895 95.2994C294.623 94.3126 293.244 93.4709 291.785 92.7898C291.785 92.7898 290.745 90.8137 289.151 90.6622C287.557 90.5107 277.876 90.4515 277.204 90.7215C276.533 90.9916 275.229 92.994 274.774 93.1587C274.32 93.3233 272.14 95.6024 262.755 97.7036C253.37 99.8048 237.07 102.38 237.07 102.38L215.456 71.4219L207.368 74.274L224.636 104.31C224.636 104.31 230.089 115.627 233.198 116.167C236.306 116.707 257.565 118.505 257.565 118.505L256.373 147.935C256.373 147.935 255.504 161.465 254.859 167.986C254.213 174.507 248.628 198.286 248.628 198.286L313.453 198.259Z" fill="#C8C1EE"/>
<path d="M431.109 331.914C430.902 307.377 421.012 283.914 403.59 266.636C386.169 249.358 362.628 239.664 338.094 239.664C313.559 239.664 290.019 249.358 272.597 266.636C255.176 283.914 245.285 307.377 245.079 331.914H431.109Z" fill="#9686E5"/>
<path d="M42.7816 331.572L347.666 331.572" stroke="#261096" stroke-width="1.18" stroke-miterlimit="10"/>
<path d="M347.666 331.572H443.273" stroke="#261096" stroke-width="1.18" stroke-miterlimit="10"/>
<path d="M310.588 198.259L309.824 324.926H300.551L280.359 209.655L282.927 198.259H310.588Z" fill="#553DCC"/>
<path d="M282.927 198.259L255.267 324.926H245.678L251.974 198.259H281.465" fill="#553DCC"/>
<path d="M237.09 102.426L215.403 71.4285L207.026 74.3794C207.026 74.3794 230.076 114.131 231.558 115.607C233.04 117.082 256.492 118.373 256.492 118.373C256.492 118.373 256.854 134.999 255.991 156.577C255.399 171.233 250.802 183.478 248.523 198.253H313.453L307.104 158.152L306.749 122.299" stroke="#261096" stroke-width="1.18" stroke-miterlimit="10"/>
<path d="M318.603 330.063C316.041 328.193 311.734 324.945 308.533 324.945H300.709V331.611H318.03C318.213 331.616 318.392 331.563 318.544 331.46C318.695 331.357 318.81 331.21 318.873 331.038C318.929 330.865 318.929 330.678 318.873 330.505C318.829 330.329 318.733 330.17 318.597 330.05L318.603 330.063Z" stroke="#261096" stroke-width="1.18" stroke-miterlimit="10"/>
<path d="M236.827 330.063C239.382 328.193 243.696 324.945 246.89 324.945H254.747V331.611H237.413C237.231 331.613 237.054 331.558 236.906 331.453C236.755 331.352 236.639 331.206 236.576 331.036C236.512 330.866 236.503 330.68 236.55 330.505C236.593 330.328 236.69 330.17 236.827 330.05V330.063Z" stroke="#261096" stroke-width="1.18" stroke-miterlimit="10"/>
<path d="M209.252 65.9613C209.252 65.9613 206.413 68.2338 206.696 68.8859C206.98 69.538 209.252 73.3123 209.252 73.3123L215.403 71.4219L209.166 60.6391C209.136 60.5798 209.084 60.5348 209.021 60.5139C208.96 60.4913 208.892 60.4913 208.83 60.5139C208.763 60.5329 208.705 60.5748 208.666 60.6325C208.631 60.688 208.613 60.7518 208.613 60.8169L209.568 66.6793" stroke="#261096" stroke-width="1.18" stroke-miterlimit="10"/>
<path d="M294.058 93.8108C292.963 93.1251 291.694 92.7706 290.402 92.7898H277.053C275.7 92.768 274.373 93.1636 273.253 93.9227" stroke="#261096" stroke-width="1.18" stroke-miterlimit="10"/>
<path d="M292.009 93.0598L290.804 91.367C290.605 91.1305 290.352 90.9452 290.067 90.8269C289.782 90.7034 289.474 90.647 289.164 90.6622H277.777C277.473 90.6488 277.169 90.7027 276.888 90.8203C276.607 90.9379 276.356 91.1155 276.151 91.3407L274.787 93.1652" stroke="#261096" stroke-width="1.18" stroke-miterlimit="10"/>
<path d="M273.253 93.9227C269.539 96.8342 250.005 100.938 237.09 102.42" stroke="#261096" stroke-width="1.18" stroke-miterlimit="10"/>
<path d="M307.387 149.852C307.387 149.852 315.382 149.345 319.242 145.004C323.101 140.663 313.848 110.482 311.866 106.221C311.455 105.29 310.879 104.442 310.166 103.717C307.743 101.419 301.467 100.062 294.031 93.8371" stroke="#261096" stroke-width="1.18" stroke-miterlimit="10"/>
<path d="M282.927 198.259L290.732 269.767L280.082 209.793L282.927 198.259Z" fill="#261096"/>
<path d="M310.529 202.547C309.554 202.547 251.974 198.253 251.974 198.253H310.588L310.529 202.547Z" fill="#261096"/>
<path d="M311.648 149.114C311.339 145.946 306.749 122.293 306.749 122.293L307.407 149.846C307.407 149.846 311.721 149.944 311.648 149.114Z" fill="#261096"/>
<path d="M262.781 118.762C262.518 118.762 253.285 118.163 253.285 118.163" stroke="#261096" stroke-width="1.18" stroke-miterlimit="10"/>
<path d="M287.669 85.5969C288.828 85.9197 290.666 85.7748 290.785 84.6286C291.898 74.498 295.046 77.0339 294.538 69.7686C293.939 61.2056 291.753 56.8055 284.337 55.8175C276.921 54.8294 262.472 57.0492 264.079 61.8906C265.106 65.0062 269.618 64.0314 269.387 66.3434C269.157 68.6554 270.217 70.2955 270.461 71.1782C270.546 71.5207 270.678 72.153 270.796 72.7985C270.842 72.9307 270.922 73.0487 271.027 73.1411C271.134 73.2325 271.264 73.2938 271.402 73.3189C271.54 73.3385 271.68 73.3249 271.811 73.2794C271.939 73.2274 272.053 73.1436 272.14 73.0357C272.799 72.0147 273.813 71.0069 274.998 71.2967C275.628 71.4353 276.222 71.7021 276.743 72.0806C277.276 72.459 277.724 72.9434 278.061 73.5033C278.388 74.0602 278.594 74.6796 278.667 75.3213C278.745 75.9608 278.687 76.6097 278.495 77.2249C277.659 80.3076 279.457 82.7316 282.565 83.937C284.245 84.6023 286.22 85.1951 287.669 85.5969Z" fill="#261096"/>
<path d="M275.598 92.882L274.419 87.5532C274.419 87.5532 270.671 88.1526 269.473 88.1526C268.274 88.1526 266.917 79.6357 266.838 78.7531C266.759 77.8704 265.857 78.0549 265.212 77.4028C264.823 77.0076 266.094 75.0183 266.871 74.0105C267.648 73.0027 267.214 71.1584 266.568 69.9266C265.923 68.6949 266.898 65.6056 267.392 61.614" stroke="#261096" stroke-width="1.18" stroke-miterlimit="10"/>
<path d="M288.459 90.7215L288.736 84.4903" stroke="#261096" stroke-width="1.18" stroke-miterlimit="10"/>
<path d="M260.246 118.762L255.511 162.94L256.518 118.354L260.246 118.762Z" fill="#261096"/>
<path d="M214.665 70.5853L207.032 74.3662L215.403 71.4153L214.665 70.5853Z" fill="#261096"/>
<path d="M288.73 88.8179L277.04 90.8532L275.571 92.882C275.571 92.882 276.355 90.6227 277.751 90.6556C279.147 90.6886 288.578 90.491 288.578 90.491L288.73 88.8179Z" fill="#261096"/>
<path d="M227.936 20.4853L205.728 45.3048C204.098 47.1327 201.883 48.3357 199.462 48.7071C197.042 49.0786 194.567 48.5952 192.464 47.3401L169.058 33.4352C167.053 32.2378 164.707 31.7407 162.388 32.0221C160.069 32.3035 157.91 33.3473 156.249 34.9897L121.232 69.4919C120.217 70.4981 119.008 71.2873 117.678 71.8114C116.348 72.3355 114.925 72.5835 113.497 72.5403C112.068 72.4972 110.663 72.1638 109.367 71.5605C108.072 70.9572 106.912 70.0965 105.96 69.0308L71.4629 30.6291C70.4335 29.4914 69.168 28.5922 67.7551 27.9944L33.5811 13.378" stroke="#261096" stroke-width="1.56" stroke-miterlimit="10"/>
<path d="M180.551 93.9227L50.7044 93.9227" stroke="#261096" stroke-width="1.56" stroke-miterlimit="10"/>
<path d="M185.102 111.661L42.7882 111.661" stroke="#261096" stroke-width="1.56" stroke-miterlimit="10"/>
<path d="M23.1557 131.027L245.988 131.027V133.069L23.1557 133.069V131.027Z" fill="#261096"/>
<path d="M537.141 260.684C585.955 219.377 580.252 79.5435 455.378 97.2886C330.504 115.034 207.645 427.951 0.184468 282.177" stroke="#261096" stroke-miterlimit="10"/>
</g>
<defs>
<clipPath id="clip0_387_344">
<rect width="566" height="332" fill="white" transform="matrix(-1 0 0 1 566 0)"/>
</clipPath>
</defs>
</svg>
