<svg width="1411" height="895" viewBox="0 0 1411 895" fill="none" xmlns="http://www.w3.org/2000/svg">
<path d="M1300.98 629.187C1309.91 602.215 1333.6 498.99 1275 488.538C1182.36 472.013 1191.86 399.791 1104.21 382.714C1034.37 369.106 969.032 439.779 900.377 421.233C862.536 411.01 804.158 366.48 709.048 369.332C613.938 372.184 554.496 360.596 484.161 281.931C429.119 220.37 321.895 230.236 256.965 201.565C192.036 172.895 148.949 119.107 112.164 165.275C82.7358 202.211 109.827 535.717 127.052 697.853L1300.98 629.187Z" fill="#D6B3F1"/>
<path d="M1343.05 660.93C1351.98 633.958 1375.67 530.733 1317.07 520.281C1224.43 503.756 1233.93 431.534 1146.28 414.456C1076.44 400.849 1011.1 471.522 942.449 452.976C904.608 442.753 846.23 398.223 751.119 401.075C656.009 403.927 596.568 392.339 526.233 313.674C471.191 252.113 363.966 261.979 299.037 233.308C234.107 204.637 191.021 150.85 154.236 197.018C124.807 233.953 151.899 567.46 169.123 729.596L1343.05 660.93Z" fill="#9D53D5"/>
<path d="M1307.15 669.285C1316.08 642.313 1339.77 539.088 1281.17 528.636C1188.52 512.111 1198.03 439.889 1110.38 422.812C1040.54 409.204 975.2 479.877 906.546 461.331C868.705 451.108 810.327 406.578 715.216 409.43C620.106 412.282 560.664 400.694 490.33 322.029C435.288 260.468 328.063 270.334 263.134 241.663C198.204 212.993 155.118 159.205 118.332 205.374C88.9043 242.309 115.996 575.815 133.22 737.951L1307.15 669.285Z" fill="url(#paint0_linear_387_308)"/>
<path d="M1260.15 669.286C1269.08 642.314 1292.77 539.089 1234.17 528.637C1141.52 512.112 1151.03 439.89 1063.38 422.812C993.536 409.205 928.2 479.878 859.546 461.332C821.705 451.109 763.327 406.579 668.216 409.431C573.106 412.283 513.664 400.695 443.33 322.029C388.288 260.469 281.063 270.335 216.134 241.664C151.204 212.993 108.118 159.205 71.3325 205.374C41.9043 242.309 68.9959 575.815 86.2203 737.952L1260.15 669.286Z" fill="#B87EE4"/>
<defs>
<linearGradient id="paint0_linear_387_308" x1="835.147" y1="582.804" x2="557.532" y2="850.536" gradientUnits="userSpaceOnUse">
<stop stop-color="#8732C9"/>
<stop offset="1" stop-color="#B87EE4" stop-opacity="0"/>
</linearGradient>
</defs>
</svg>
