<svg width="30" height="30" viewBox="0 0 30 30" fill="none" xmlns="http://www.w3.org/2000/svg">
<path fill-rule="evenodd" clip-rule="evenodd" d="M19.7946 16.4231C19.9282 15.9721 20 15.4944 20 15C20 12.2386 17.7614 10 15 10C14.5056 10 14.0279 10.0718 13.5769 10.2054L14.414 11.0426C14.6053 11.0145 14.801 11 15 11C17.2091 11 19 12.7909 19 15C19 15.199 18.9855 15.3947 18.9574 15.586L19.7946 16.4231ZM11.7695 12.6407C11.2857 13.3021 11 14.1177 11 15C11 17.2091 12.7909 19 15 19C15.8823 19 16.6979 18.7143 17.3593 18.2305L18.0732 18.9444C17.2253 19.6059 16.1587 20 15 20C12.2386 20 10 17.7614 10 15C10 13.8413 10.3941 12.7747 11.0556 11.9268L11.7695 12.6407Z" fill="#6C6C6C"/>
<path fill-rule="evenodd" clip-rule="evenodd" d="M20.4336 21.3049L19.7046 20.5759C18.2627 21.4223 16.6663 22 15 22C12.7841 22 10.6917 20.9782 8.92173 19.6617C7.15666 18.3487 5.75909 16.7773 4.9434 15.7588C4.52197 15.2325 4.47632 15.1394 4.47632 15C4.47632 14.8606 4.52197 14.7675 4.9434 14.2412C5.75909 13.2227 7.15666 11.6513 8.92173 10.3383C9.02594 10.2608 9.13127 10.1843 9.23768 10.109L8.52092 9.39222C8.45504 9.43984 8.38969 9.48776 8.32489 9.53597C6.46527 10.9192 5.00697 12.5621 4.16286 13.6161L4.10334 13.6902C3.77754 14.0951 3.47632 14.4694 3.47632 15C3.47632 15.5306 3.77754 15.9049 4.10334 16.3098L4.16286 16.3839C5.00697 17.4379 6.46526 19.0808 8.32489 20.464C10.1796 21.8437 12.4808 23 15 23C16.9836 23 18.8319 22.2832 20.4336 21.3049ZM11.2085 7.83715C12.3882 7.3255 13.6634 7 15 7C17.5193 7 19.8204 8.15633 21.6752 9.53597C23.5348 10.9192 24.9931 12.5621 25.8372 13.6161L25.8967 13.6902C26.2225 14.0951 26.5237 14.4694 26.5237 15C26.5237 15.5306 26.2225 15.9049 25.8967 16.3098L25.8372 16.3839C25.1834 17.2002 24.1613 18.3697 22.8696 19.4983L22.1608 18.7895C23.4159 17.7003 24.4158 16.5589 25.0567 15.7588C25.4781 15.2325 25.5237 15.1394 25.5237 15C25.5237 14.8606 25.4781 14.7675 25.0567 14.2412C24.241 13.2227 22.8434 11.6513 21.0783 10.3383C19.3084 9.02176 17.216 8 15 8C13.9572 8 12.9418 8.22628 11.9744 8.60307L11.2085 7.83715Z" fill="#6C6C6C"/>
<path d="M6.25 2.5L26.25 22.5" stroke="#6C6C6C"/>
</svg>
